%TF.GenerationSoftware,KiCad,Pcbnew,5.1.10*%
%TF.CreationDate,2021-08-11T14:36:07-04:00*%
%TF.ProjectId,TestSchematic,54657374-5363-4686-956d-617469632e6b,rev?*%
%TF.SameCoordinates,Original*%
%TF.FileFunction,Copper,L1,Top*%
%TF.FilePolarity,Positive*%
%FSLAX46Y46*%
G04 Gerber Fmt 4.6, Leading zero omitted, Abs format (unit mm)*
G04 Created by KiCad (PCBNEW 5.1.10) date 2021-08-11 14:36:07*
%MOMM*%
%LPD*%
G01*
G04 APERTURE LIST*
%TA.AperFunction,ComponentPad*%
%ADD10O,1.700000X1.700000*%
%TD*%
%TA.AperFunction,ComponentPad*%
%ADD11R,1.700000X1.700000*%
%TD*%
%TA.AperFunction,SMDPad,CuDef*%
%ADD12R,1.700000X3.500000*%
%TD*%
%TA.AperFunction,SMDPad,CuDef*%
%ADD13R,3.500000X1.700000*%
%TD*%
%TA.AperFunction,ComponentPad*%
%ADD14R,1.600000X1.600000*%
%TD*%
%TA.AperFunction,ComponentPad*%
%ADD15O,1.600000X1.600000*%
%TD*%
%TA.AperFunction,ViaPad*%
%ADD16C,0.800000*%
%TD*%
%TA.AperFunction,Conductor*%
%ADD17C,0.250000*%
%TD*%
G04 APERTURE END LIST*
D10*
%TO.P,U9,1*%
%TO.N,Net-(U7-Pad14)*%
X95250000Y-87630000D03*
%TO.P,U9,2*%
%TO.N,Net-(U7-Pad11)*%
X97790000Y-87630000D03*
D11*
%TO.P,U9,3*%
%TO.N,Net-(U9-Pad3)*%
X100330000Y-87630000D03*
D10*
%TO.P,U9,4*%
%TO.N,Net-(U7-Pad10)*%
X102870000Y-87630000D03*
%TO.P,U9,5*%
%TO.N,Net-(U7-Pad12)*%
X105410000Y-87630000D03*
%TO.P,U9,6*%
%TO.N,Net-(U9-Pad6)*%
X107950000Y-87630000D03*
%TO.P,U9,7*%
%TO.N,Net-(U3-Pad14)*%
X110490000Y-87630000D03*
D11*
%TO.P,U9,8*%
%TO.N,Net-(U9-Pad8)*%
X113030000Y-87630000D03*
D10*
%TO.P,U9,9*%
%TO.N,Net-(U3-Pad11)*%
X115570000Y-87630000D03*
%TO.P,U9,10*%
%TO.N,Net-(U3-Pad10)*%
X118110000Y-87630000D03*
%TO.P,U9,11*%
%TO.N,Net-(U3-Pad12)*%
X120650000Y-87630000D03*
%TO.P,U9,12*%
%TO.N,Net-(U3-Pad13)*%
X123190000Y-87630000D03*
D11*
%TO.P,U9,13*%
%TO.N,Net-(U1-Pad8)*%
X125730000Y-87630000D03*
D10*
%TO.P,U9,14*%
%TO.N,Net-(U9-Pad14)*%
X128270000Y-87630000D03*
%TO.P,U9,15*%
%TO.N,Net-(U1-Pad2)*%
X130810000Y-87630000D03*
%TO.P,U9,16*%
%TO.N,Net-(U1-Pad15)*%
X133350000Y-87630000D03*
%TO.P,U9,17*%
%TO.N,Net-(U2-Pad9)*%
X135890000Y-87630000D03*
D11*
%TO.P,U9,18*%
%TO.N,Net-(U9-Pad18)*%
X138430000Y-87630000D03*
D10*
%TO.P,U9,19*%
%TO.N,Net-(U5-Pad27)*%
X140970000Y-87630000D03*
%TO.P,U9,20*%
%TO.N,Net-(U5-Pad22)*%
X143510000Y-87630000D03*
%TO.P,U9,21*%
%TO.N,Net-(U5-Pad20)*%
X143510000Y-69850000D03*
%TO.P,U9,22*%
%TO.N,Net-(U9-Pad22)*%
X140970000Y-69850000D03*
D11*
%TO.P,U9,23*%
%TO.N,Net-(U9-Pad23)*%
X138430000Y-69850000D03*
D10*
%TO.P,U9,24*%
%TO.N,Net-(U9-Pad24)*%
X135890000Y-69850000D03*
%TO.P,U9,25*%
%TO.N,Net-(U9-Pad25)*%
X133350000Y-69850000D03*
%TO.P,U9,26*%
%TO.N,Net-(U9-Pad26)*%
X130810000Y-69850000D03*
%TO.P,U9,27*%
%TO.N,Net-(U9-Pad27)*%
X128270000Y-69850000D03*
D11*
%TO.P,U9,28*%
%TO.N,Net-(U9-Pad28)*%
X125730000Y-69850000D03*
D10*
%TO.P,U9,29*%
%TO.N,Net-(U9-Pad29)*%
X123190000Y-69850000D03*
%TO.P,U9,30*%
%TO.N,Net-(U9-Pad30)*%
X120650000Y-69850000D03*
%TO.P,U9,31*%
%TO.N,Net-(U9-Pad31)*%
X118110000Y-69850000D03*
%TO.P,U9,32*%
%TO.N,Net-(U9-Pad32)*%
X115570000Y-69850000D03*
D11*
%TO.P,U9,33*%
%TO.N,Net-(U9-Pad33)*%
X113030000Y-69850000D03*
D10*
%TO.P,U9,34*%
%TO.N,Net-(U9-Pad34)*%
X110490000Y-69850000D03*
%TO.P,U9,35*%
%TO.N,Net-(U9-Pad35)*%
X107950000Y-69850000D03*
%TO.P,U9,36*%
%TO.N,Net-(U1-Pad16)*%
X105410000Y-69850000D03*
%TO.P,U9,37*%
%TO.N,Net-(U9-Pad37)*%
X102870000Y-69850000D03*
D11*
%TO.P,U9,38*%
%TO.N,Net-(U9-Pad38)*%
X100330000Y-69850000D03*
D10*
%TO.P,U9,39*%
%TO.N,Net-(U9-Pad39)*%
X97790000Y-69850000D03*
%TO.P,U9,40*%
%TO.N,Net-(U9-Pad40)*%
X95250000Y-69850000D03*
D12*
%TO.P,U9,1*%
%TO.N,Net-(U7-Pad14)*%
X95250000Y-88530000D03*
%TO.P,U9,2*%
%TO.N,Net-(U7-Pad11)*%
X97790000Y-88530000D03*
%TO.P,U9,3*%
%TO.N,Net-(U9-Pad3)*%
X100330000Y-88530000D03*
%TO.P,U9,4*%
%TO.N,Net-(U7-Pad10)*%
X102870000Y-88530000D03*
%TO.P,U9,5*%
%TO.N,Net-(U7-Pad12)*%
X105410000Y-88530000D03*
%TO.P,U9,6*%
%TO.N,Net-(U9-Pad6)*%
X107950000Y-88530000D03*
%TO.P,U9,7*%
%TO.N,Net-(U3-Pad14)*%
X110490000Y-88530000D03*
%TO.P,U9,8*%
%TO.N,Net-(U9-Pad8)*%
X113030000Y-88530000D03*
%TO.P,U9,9*%
%TO.N,Net-(U3-Pad11)*%
X115570000Y-88530000D03*
%TO.P,U9,10*%
%TO.N,Net-(U3-Pad10)*%
X118110000Y-88530000D03*
%TO.P,U9,11*%
%TO.N,Net-(U3-Pad12)*%
X120650000Y-88530000D03*
%TO.P,U9,12*%
%TO.N,Net-(U3-Pad13)*%
X123190000Y-88530000D03*
%TO.P,U9,13*%
%TO.N,Net-(U1-Pad8)*%
X125730000Y-88530000D03*
%TO.P,U9,14*%
%TO.N,Net-(U9-Pad14)*%
X128270000Y-88530000D03*
%TO.P,U9,15*%
%TO.N,Net-(U1-Pad2)*%
X130810000Y-88530000D03*
%TO.P,U9,16*%
%TO.N,Net-(U1-Pad15)*%
X133350000Y-88530000D03*
%TO.P,U9,17*%
%TO.N,Net-(U2-Pad9)*%
X135890000Y-88530000D03*
%TO.P,U9,18*%
%TO.N,Net-(U9-Pad18)*%
X138430000Y-88530000D03*
%TO.P,U9,19*%
%TO.N,Net-(U5-Pad27)*%
X140970000Y-88530000D03*
%TO.P,U9,20*%
%TO.N,Net-(U5-Pad22)*%
X143510000Y-88530000D03*
%TO.P,U9,40*%
%TO.N,Net-(U9-Pad40)*%
X95250000Y-68950000D03*
%TO.P,U9,39*%
%TO.N,Net-(U9-Pad39)*%
X97790000Y-68950000D03*
%TO.P,U9,38*%
%TO.N,Net-(U9-Pad38)*%
X100330000Y-68950000D03*
%TO.P,U9,37*%
%TO.N,Net-(U9-Pad37)*%
X102870000Y-68950000D03*
%TO.P,U9,36*%
%TO.N,Net-(U1-Pad16)*%
X105410000Y-68950000D03*
%TO.P,U9,35*%
%TO.N,Net-(U9-Pad35)*%
X107950000Y-68950000D03*
%TO.P,U9,34*%
%TO.N,Net-(U9-Pad34)*%
X110490000Y-68950000D03*
%TO.P,U9,33*%
%TO.N,Net-(U9-Pad33)*%
X113030000Y-68950000D03*
%TO.P,U9,32*%
%TO.N,Net-(U9-Pad32)*%
X115570000Y-68950000D03*
%TO.P,U9,31*%
%TO.N,Net-(U9-Pad31)*%
X118110000Y-68950000D03*
%TO.P,U9,30*%
%TO.N,Net-(U9-Pad30)*%
X120650000Y-68950000D03*
%TO.P,U9,29*%
%TO.N,Net-(U9-Pad29)*%
X123190000Y-68950000D03*
%TO.P,U9,28*%
%TO.N,Net-(U9-Pad28)*%
X125730000Y-68950000D03*
%TO.P,U9,27*%
%TO.N,Net-(U9-Pad27)*%
X128270000Y-68950000D03*
%TO.P,U9,26*%
%TO.N,Net-(U9-Pad26)*%
X130810000Y-68950000D03*
%TO.P,U9,25*%
%TO.N,Net-(U9-Pad25)*%
X133350000Y-68950000D03*
%TO.P,U9,24*%
%TO.N,Net-(U9-Pad24)*%
X135890000Y-68950000D03*
%TO.P,U9,23*%
%TO.N,Net-(U9-Pad23)*%
X138430000Y-68950000D03*
%TO.P,U9,22*%
%TO.N,Net-(U9-Pad22)*%
X140970000Y-68950000D03*
%TO.P,U9,21*%
%TO.N,Net-(U5-Pad20)*%
X143510000Y-68950000D03*
D13*
%TO.P,U9,41*%
%TO.N,Net-(U9-Pad41)*%
X144180000Y-81280000D03*
D10*
X143280000Y-81280000D03*
D13*
%TO.P,U9,42*%
%TO.N,Net-(U9-Pad42)*%
X144180000Y-78740000D03*
D11*
X143280000Y-78740000D03*
D13*
%TO.P,U9,43*%
%TO.N,Net-(U9-Pad43)*%
X144180000Y-76200000D03*
D10*
X143280000Y-76200000D03*
%TD*%
D14*
%TO.P,U8,1*%
%TO.N,Net-(U5-Pad24)*%
X111760000Y-104140000D03*
D15*
%TO.P,U8,9*%
%TO.N,Net-(U8-Pad9)*%
X129540000Y-96520000D03*
%TO.P,U8,2*%
%TO.N,Net-(U5-Pad21)*%
X114300000Y-104140000D03*
%TO.P,U8,10*%
%TO.N,Net-(U7-Pad10)*%
X127000000Y-96520000D03*
%TO.P,U8,3*%
%TO.N,Net-(U5-Pad23)*%
X116840000Y-104140000D03*
%TO.P,U8,11*%
%TO.N,Net-(U7-Pad11)*%
X124460000Y-96520000D03*
%TO.P,U8,4*%
%TO.N,Net-(U5-Pad2)*%
X119380000Y-104140000D03*
%TO.P,U8,12*%
%TO.N,Net-(U7-Pad12)*%
X121920000Y-96520000D03*
%TO.P,U8,5*%
%TO.N,Net-(U5-Pad26)*%
X121920000Y-104140000D03*
%TO.P,U8,13*%
%TO.N,Net-(U1-Pad8)*%
X119380000Y-96520000D03*
%TO.P,U8,6*%
%TO.N,Net-(U5-Pad1)*%
X124460000Y-104140000D03*
%TO.P,U8,14*%
%TO.N,Net-(U7-Pad9)*%
X116840000Y-96520000D03*
%TO.P,U8,7*%
%TO.N,Net-(U8-Pad7)*%
X127000000Y-104140000D03*
%TO.P,U8,15*%
%TO.N,Net-(U5-Pad25)*%
X114300000Y-96520000D03*
%TO.P,U8,8*%
%TO.N,Net-(U1-Pad8)*%
X129540000Y-104140000D03*
%TO.P,U8,16*%
%TO.N,Net-(U1-Pad16)*%
X111760000Y-96520000D03*
%TD*%
D14*
%TO.P,U7,1*%
%TO.N,Net-(U5-Pad9)*%
X66040000Y-104140000D03*
D15*
%TO.P,U7,9*%
%TO.N,Net-(U7-Pad9)*%
X83820000Y-96520000D03*
%TO.P,U7,2*%
%TO.N,Net-(U5-Pad8)*%
X68580000Y-104140000D03*
%TO.P,U7,10*%
%TO.N,Net-(U7-Pad10)*%
X81280000Y-96520000D03*
%TO.P,U7,3*%
%TO.N,Net-(U5-Pad7)*%
X71120000Y-104140000D03*
%TO.P,U7,11*%
%TO.N,Net-(U7-Pad11)*%
X78740000Y-96520000D03*
%TO.P,U7,4*%
%TO.N,Net-(U5-Pad6)*%
X73660000Y-104140000D03*
%TO.P,U7,12*%
%TO.N,Net-(U7-Pad12)*%
X76200000Y-96520000D03*
%TO.P,U7,5*%
%TO.N,Net-(U5-Pad5)*%
X76200000Y-104140000D03*
%TO.P,U7,13*%
%TO.N,Net-(U1-Pad8)*%
X73660000Y-96520000D03*
%TO.P,U7,6*%
%TO.N,Net-(U5-Pad4)*%
X78740000Y-104140000D03*
%TO.P,U7,14*%
%TO.N,Net-(U7-Pad14)*%
X71120000Y-96520000D03*
%TO.P,U7,7*%
%TO.N,Net-(U5-Pad3)*%
X81280000Y-104140000D03*
%TO.P,U7,15*%
%TO.N,Net-(U5-Pad10)*%
X68580000Y-96520000D03*
%TO.P,U7,8*%
%TO.N,Net-(U1-Pad8)*%
X83820000Y-104140000D03*
%TO.P,U7,16*%
%TO.N,Net-(U1-Pad16)*%
X66040000Y-96520000D03*
%TD*%
%TO.P,U6,28*%
%TO.N,Net-(U1-Pad16)*%
X137160000Y-125730000D03*
%TO.P,U6,14*%
%TO.N,Net-(U1-Pad8)*%
X104140000Y-110490000D03*
%TO.P,U6,27*%
%TO.N,Net-(U5-Pad27)*%
X134620000Y-125730000D03*
%TO.P,U6,13*%
%TO.N,Net-(U2-Pad13)*%
X106680000Y-110490000D03*
%TO.P,U6,26*%
%TO.N,Net-(U5-Pad26)*%
X132080000Y-125730000D03*
%TO.P,U6,12*%
%TO.N,Net-(U2-Pad12)*%
X109220000Y-110490000D03*
%TO.P,U6,25*%
%TO.N,Net-(U5-Pad25)*%
X129540000Y-125730000D03*
%TO.P,U6,11*%
%TO.N,Net-(U2-Pad11)*%
X111760000Y-110490000D03*
%TO.P,U6,24*%
%TO.N,Net-(U5-Pad24)*%
X127000000Y-125730000D03*
%TO.P,U6,10*%
%TO.N,Net-(U5-Pad10)*%
X114300000Y-110490000D03*
%TO.P,U6,23*%
%TO.N,Net-(U5-Pad23)*%
X124460000Y-125730000D03*
%TO.P,U6,9*%
%TO.N,Net-(U5-Pad9)*%
X116840000Y-110490000D03*
%TO.P,U6,22*%
%TO.N,Net-(U5-Pad22)*%
X121920000Y-125730000D03*
%TO.P,U6,8*%
%TO.N,Net-(U5-Pad8)*%
X119380000Y-110490000D03*
%TO.P,U6,21*%
%TO.N,Net-(U5-Pad21)*%
X119380000Y-125730000D03*
%TO.P,U6,7*%
%TO.N,Net-(U5-Pad7)*%
X121920000Y-110490000D03*
%TO.P,U6,20*%
%TO.N,Net-(U5-Pad20)*%
X116840000Y-125730000D03*
%TO.P,U6,6*%
%TO.N,Net-(U5-Pad6)*%
X124460000Y-110490000D03*
%TO.P,U6,19*%
%TO.N,Net-(U2-Pad6)*%
X114300000Y-125730000D03*
%TO.P,U6,5*%
%TO.N,Net-(U5-Pad5)*%
X127000000Y-110490000D03*
%TO.P,U6,18*%
%TO.N,Net-(U2-Pad5)*%
X111760000Y-125730000D03*
%TO.P,U6,4*%
%TO.N,Net-(U5-Pad4)*%
X129540000Y-110490000D03*
%TO.P,U6,17*%
%TO.N,Net-(U2-Pad4)*%
X109220000Y-125730000D03*
%TO.P,U6,3*%
%TO.N,Net-(U5-Pad3)*%
X132080000Y-110490000D03*
%TO.P,U6,16*%
%TO.N,Net-(U2-Pad3)*%
X106680000Y-125730000D03*
%TO.P,U6,2*%
%TO.N,Net-(U5-Pad2)*%
X134620000Y-110490000D03*
%TO.P,U6,15*%
%TO.N,Net-(U2-Pad14)*%
X104140000Y-125730000D03*
D14*
%TO.P,U6,1*%
%TO.N,Net-(U5-Pad1)*%
X137160000Y-110490000D03*
%TD*%
D15*
%TO.P,U5,28*%
%TO.N,Net-(U1-Pad16)*%
X90170000Y-125730000D03*
%TO.P,U5,14*%
%TO.N,Net-(U1-Pad8)*%
X57150000Y-110490000D03*
%TO.P,U5,27*%
%TO.N,Net-(U5-Pad27)*%
X87630000Y-125730000D03*
%TO.P,U5,13*%
%TO.N,Net-(U1-Pad13)*%
X59690000Y-110490000D03*
%TO.P,U5,26*%
%TO.N,Net-(U5-Pad26)*%
X85090000Y-125730000D03*
%TO.P,U5,12*%
%TO.N,Net-(U1-Pad12)*%
X62230000Y-110490000D03*
%TO.P,U5,25*%
%TO.N,Net-(U5-Pad25)*%
X82550000Y-125730000D03*
%TO.P,U5,11*%
%TO.N,Net-(U1-Pad11)*%
X64770000Y-110490000D03*
%TO.P,U5,24*%
%TO.N,Net-(U5-Pad24)*%
X80010000Y-125730000D03*
%TO.P,U5,10*%
%TO.N,Net-(U5-Pad10)*%
X67310000Y-110490000D03*
%TO.P,U5,23*%
%TO.N,Net-(U5-Pad23)*%
X77470000Y-125730000D03*
%TO.P,U5,9*%
%TO.N,Net-(U5-Pad9)*%
X69850000Y-110490000D03*
%TO.P,U5,22*%
%TO.N,Net-(U5-Pad22)*%
X74930000Y-125730000D03*
%TO.P,U5,8*%
%TO.N,Net-(U5-Pad8)*%
X72390000Y-110490000D03*
%TO.P,U5,21*%
%TO.N,Net-(U5-Pad21)*%
X72390000Y-125730000D03*
%TO.P,U5,7*%
%TO.N,Net-(U5-Pad7)*%
X74930000Y-110490000D03*
%TO.P,U5,20*%
%TO.N,Net-(U5-Pad20)*%
X69850000Y-125730000D03*
%TO.P,U5,6*%
%TO.N,Net-(U5-Pad6)*%
X77470000Y-110490000D03*
%TO.P,U5,19*%
%TO.N,Net-(U1-Pad6)*%
X67310000Y-125730000D03*
%TO.P,U5,5*%
%TO.N,Net-(U5-Pad5)*%
X80010000Y-110490000D03*
%TO.P,U5,18*%
%TO.N,Net-(U1-Pad5)*%
X64770000Y-125730000D03*
%TO.P,U5,4*%
%TO.N,Net-(U5-Pad4)*%
X82550000Y-110490000D03*
%TO.P,U5,17*%
%TO.N,Net-(U1-Pad4)*%
X62230000Y-125730000D03*
%TO.P,U5,3*%
%TO.N,Net-(U5-Pad3)*%
X85090000Y-110490000D03*
%TO.P,U5,16*%
%TO.N,Net-(U1-Pad3)*%
X59690000Y-125730000D03*
%TO.P,U5,2*%
%TO.N,Net-(U5-Pad2)*%
X87630000Y-110490000D03*
%TO.P,U5,15*%
%TO.N,Net-(U1-Pad14)*%
X57150000Y-125730000D03*
D14*
%TO.P,U5,1*%
%TO.N,Net-(U5-Pad1)*%
X90170000Y-110490000D03*
%TD*%
D15*
%TO.P,U4,16*%
%TO.N,Net-(U1-Pad16)*%
X104140000Y-135890000D03*
%TO.P,U4,8*%
%TO.N,Net-(U1-Pad8)*%
X121920000Y-143510000D03*
%TO.P,U4,15*%
%TO.N,Net-(U2-Pad11)*%
X106680000Y-135890000D03*
%TO.P,U4,7*%
%TO.N,Net-(U2-Pad6)*%
X119380000Y-143510000D03*
%TO.P,U4,14*%
%TO.N,Net-(U3-Pad9)*%
X109220000Y-135890000D03*
%TO.P,U4,6*%
%TO.N,Net-(U2-Pad5)*%
X116840000Y-143510000D03*
%TO.P,U4,13*%
%TO.N,Net-(U3-Pad13)*%
X111760000Y-135890000D03*
%TO.P,U4,5*%
%TO.N,Net-(U2-Pad4)*%
X114300000Y-143510000D03*
%TO.P,U4,12*%
%TO.N,Net-(U3-Pad12)*%
X114300000Y-135890000D03*
%TO.P,U4,4*%
%TO.N,Net-(U2-Pad3)*%
X111760000Y-143510000D03*
%TO.P,U4,11*%
%TO.N,Net-(U3-Pad11)*%
X116840000Y-135890000D03*
%TO.P,U4,3*%
%TO.N,Net-(U2-Pad14)*%
X109220000Y-143510000D03*
%TO.P,U4,10*%
%TO.N,Net-(U3-Pad10)*%
X119380000Y-135890000D03*
%TO.P,U4,2*%
%TO.N,Net-(U2-Pad13)*%
X106680000Y-143510000D03*
%TO.P,U4,9*%
%TO.N,Net-(U4-Pad9)*%
X121920000Y-135890000D03*
D14*
%TO.P,U4,1*%
%TO.N,Net-(U2-Pad12)*%
X104140000Y-143510000D03*
%TD*%
D15*
%TO.P,U3,16*%
%TO.N,Net-(U1-Pad16)*%
X64770000Y-135890000D03*
%TO.P,U3,8*%
%TO.N,Net-(U1-Pad8)*%
X82550000Y-143510000D03*
%TO.P,U3,15*%
%TO.N,Net-(U1-Pad11)*%
X67310000Y-135890000D03*
%TO.P,U3,7*%
%TO.N,Net-(U1-Pad6)*%
X80010000Y-143510000D03*
%TO.P,U3,14*%
%TO.N,Net-(U3-Pad14)*%
X69850000Y-135890000D03*
%TO.P,U3,6*%
%TO.N,Net-(U1-Pad5)*%
X77470000Y-143510000D03*
%TO.P,U3,13*%
%TO.N,Net-(U3-Pad13)*%
X72390000Y-135890000D03*
%TO.P,U3,5*%
%TO.N,Net-(U1-Pad4)*%
X74930000Y-143510000D03*
%TO.P,U3,12*%
%TO.N,Net-(U3-Pad12)*%
X74930000Y-135890000D03*
%TO.P,U3,4*%
%TO.N,Net-(U1-Pad3)*%
X72390000Y-143510000D03*
%TO.P,U3,11*%
%TO.N,Net-(U3-Pad11)*%
X77470000Y-135890000D03*
%TO.P,U3,3*%
%TO.N,Net-(U1-Pad14)*%
X69850000Y-143510000D03*
%TO.P,U3,10*%
%TO.N,Net-(U3-Pad10)*%
X80010000Y-135890000D03*
%TO.P,U3,2*%
%TO.N,Net-(U1-Pad13)*%
X67310000Y-143510000D03*
%TO.P,U3,9*%
%TO.N,Net-(U3-Pad9)*%
X82550000Y-135890000D03*
D14*
%TO.P,U3,1*%
%TO.N,Net-(U1-Pad12)*%
X64770000Y-143510000D03*
%TD*%
%TO.P,U2,1*%
%TO.N,Net-(U1-Pad1)*%
X104140000Y-158750000D03*
D15*
%TO.P,U2,9*%
%TO.N,Net-(U2-Pad9)*%
X121920000Y-151130000D03*
%TO.P,U2,2*%
%TO.N,Net-(U1-Pad2)*%
X106680000Y-158750000D03*
%TO.P,U2,10*%
%TO.N,Net-(U1-Pad9)*%
X119380000Y-151130000D03*
%TO.P,U2,3*%
%TO.N,Net-(U2-Pad3)*%
X109220000Y-158750000D03*
%TO.P,U2,11*%
%TO.N,Net-(U2-Pad11)*%
X116840000Y-151130000D03*
%TO.P,U2,4*%
%TO.N,Net-(U2-Pad4)*%
X111760000Y-158750000D03*
%TO.P,U2,12*%
%TO.N,Net-(U2-Pad12)*%
X114300000Y-151130000D03*
%TO.P,U2,5*%
%TO.N,Net-(U2-Pad5)*%
X114300000Y-158750000D03*
%TO.P,U2,13*%
%TO.N,Net-(U2-Pad13)*%
X111760000Y-151130000D03*
%TO.P,U2,6*%
%TO.N,Net-(U2-Pad6)*%
X116840000Y-158750000D03*
%TO.P,U2,14*%
%TO.N,Net-(U2-Pad14)*%
X109220000Y-151130000D03*
%TO.P,U2,7*%
%TO.N,Net-(U2-Pad7)*%
X119380000Y-158750000D03*
%TO.P,U2,15*%
%TO.N,Net-(U1-Pad15)*%
X106680000Y-151130000D03*
%TO.P,U2,8*%
%TO.N,Net-(U1-Pad8)*%
X121920000Y-158750000D03*
%TO.P,U2,16*%
%TO.N,Net-(U1-Pad16)*%
X104140000Y-151130000D03*
%TD*%
%TO.P,U1,16*%
%TO.N,Net-(U1-Pad16)*%
X64770000Y-149860000D03*
%TO.P,U1,8*%
%TO.N,Net-(U1-Pad8)*%
X82550000Y-157480000D03*
%TO.P,U1,15*%
%TO.N,Net-(U1-Pad15)*%
X67310000Y-149860000D03*
%TO.P,U1,7*%
%TO.N,Net-(U1-Pad7)*%
X80010000Y-157480000D03*
%TO.P,U1,14*%
%TO.N,Net-(U1-Pad14)*%
X69850000Y-149860000D03*
%TO.P,U1,6*%
%TO.N,Net-(U1-Pad6)*%
X77470000Y-157480000D03*
%TO.P,U1,13*%
%TO.N,Net-(U1-Pad13)*%
X72390000Y-149860000D03*
%TO.P,U1,5*%
%TO.N,Net-(U1-Pad5)*%
X74930000Y-157480000D03*
%TO.P,U1,12*%
%TO.N,Net-(U1-Pad12)*%
X74930000Y-149860000D03*
%TO.P,U1,4*%
%TO.N,Net-(U1-Pad4)*%
X72390000Y-157480000D03*
%TO.P,U1,11*%
%TO.N,Net-(U1-Pad11)*%
X77470000Y-149860000D03*
%TO.P,U1,3*%
%TO.N,Net-(U1-Pad3)*%
X69850000Y-157480000D03*
%TO.P,U1,10*%
%TO.N,Net-(U1-Pad10)*%
X80010000Y-149860000D03*
%TO.P,U1,2*%
%TO.N,Net-(U1-Pad2)*%
X67310000Y-157480000D03*
%TO.P,U1,9*%
%TO.N,Net-(U1-Pad9)*%
X82550000Y-149860000D03*
D14*
%TO.P,U1,1*%
%TO.N,Net-(U1-Pad1)*%
X64770000Y-157480000D03*
%TD*%
D16*
%TO.N,Net-(U1-Pad15)*%
X127000000Y-144780000D03*
X133350000Y-93980000D03*
%TO.N,Net-(U1-Pad8)*%
X128270000Y-99060000D03*
X124460000Y-99060000D03*
%TO.N,Net-(U1-Pad1)*%
X104140000Y-162560000D03*
%TO.N,Net-(U2-Pad14)*%
X118110000Y-139700000D03*
%TO.N,Net-(U2-Pad6)*%
X133350000Y-133350000D03*
X130885154Y-132155154D03*
X118110000Y-132080000D03*
%TO.N,Net-(U2-Pad13)*%
X109220000Y-153670000D03*
X111760000Y-153670000D03*
X104140000Y-120650000D03*
X100330000Y-120650000D03*
X100330000Y-135890000D03*
%TO.N,Net-(U2-Pad5)*%
X127000000Y-133314999D03*
X129933573Y-133106734D03*
%TO.N,Net-(U2-Pad12)*%
X104140000Y-121920000D03*
X101600000Y-121920000D03*
X99060000Y-136885009D03*
X99060000Y-143510000D03*
%TO.N,Net-(U2-Pad4)*%
X104140000Y-123190000D03*
X101600000Y-123190000D03*
X101600000Y-135890000D03*
X104140000Y-139700000D03*
X106680000Y-139700000D03*
X114224846Y-138505154D03*
%TO.N,Net-(U2-Pad11)*%
X97790000Y-138430000D03*
X97790000Y-135890000D03*
X104140000Y-107950000D03*
%TO.N,Net-(U2-Pad3)*%
X124460000Y-134039999D03*
X129514849Y-134014848D03*
X118425152Y-140654848D03*
%TO.N,Net-(U2-Pad9)*%
X147304846Y-106695154D03*
X147320000Y-104140000D03*
%TO.N,Net-(U3-Pad13)*%
X149860000Y-93980000D03*
X131704508Y-133970187D03*
X111760000Y-137740001D03*
%TO.N,Net-(U3-Pad12)*%
X93980000Y-133350000D03*
X104140000Y-93980000D03*
%TO.N,Net-(U3-Pad11)*%
X96520000Y-135890000D03*
%TO.N,Net-(U5-Pad26)*%
X120650000Y-118110000D03*
%TO.N,Net-(U5-Pad24)*%
X115570000Y-123190000D03*
%TO.N,Net-(U5-Pad2)*%
X133350000Y-106680000D03*
%TO.N,Net-(U5-Pad1)*%
X137160000Y-106680000D03*
%TO.N,Net-(U7-Pad12)*%
X101600000Y-95250000D03*
%TO.N,Net-(U7-Pad11)*%
X97790000Y-92710000D03*
X105410000Y-92710000D03*
X110490000Y-92710000D03*
%TO.N,Net-(U7-Pad10)*%
X105410000Y-91440000D03*
X110490000Y-91440000D03*
%TO.N,Net-(U1-Pad16)*%
X104140000Y-97790000D03*
X99060000Y-97790000D03*
X64770000Y-146050000D03*
X60960000Y-132080000D03*
X60960000Y-123190000D03*
X102870000Y-130810000D03*
X63500000Y-97790000D03*
%TD*%
D17*
%TO.N,Net-(U1-Pad15)*%
X140085039Y-131694961D02*
X140085039Y-100715039D01*
X140085039Y-100715039D02*
X133350000Y-93980000D01*
X127000000Y-144780000D02*
X140085039Y-131694961D01*
%TO.N,Net-(U1-Pad8)*%
X82125014Y-104959988D02*
X81820001Y-105265001D01*
X81820001Y-105265001D02*
X62374999Y-105265001D01*
X57949999Y-109690001D02*
X57150000Y-110490000D01*
X98609988Y-104959988D02*
X82125014Y-104959988D01*
X104140000Y-110490000D02*
X98609988Y-104959988D01*
X62374999Y-105265001D02*
X57949999Y-109690001D01*
X77325001Y-97645001D02*
X83820000Y-104140000D01*
X74785001Y-97645001D02*
X77325001Y-97645001D01*
X73660000Y-96520000D02*
X74785001Y-97645001D01*
X81424999Y-156354999D02*
X82550000Y-157480000D01*
X81424999Y-144635001D02*
X81424999Y-156354999D01*
X82550000Y-143510000D02*
X81424999Y-144635001D01*
X120794999Y-157624999D02*
X121920000Y-158750000D01*
X120794999Y-144635001D02*
X120794999Y-157624999D01*
X121920000Y-143510000D02*
X120794999Y-144635001D01*
X128270000Y-99060000D02*
X124460000Y-99060000D01*
X96664999Y-103014999D02*
X98609988Y-104959988D01*
X84945001Y-103014999D02*
X96664999Y-103014999D01*
X83820000Y-104140000D02*
X84945001Y-103014999D01*
%TO.N,Net-(U1-Pad14)*%
X68724999Y-144635001D02*
X69850000Y-143510000D01*
X57150000Y-143905002D02*
X57879999Y-144635001D01*
X57879999Y-144635001D02*
X68724999Y-144635001D01*
X57150000Y-125730000D02*
X57150000Y-143905002D01*
X69850000Y-143510000D02*
X69850000Y-149860000D01*
%TO.N,Net-(U1-Pad6)*%
X78884999Y-156065001D02*
X77470000Y-157480000D01*
X78884999Y-144635001D02*
X78884999Y-156065001D01*
X80010000Y-143510000D02*
X78884999Y-144635001D01*
X76055001Y-134475001D02*
X67310000Y-125730000D01*
X76055001Y-139555001D02*
X76055001Y-134475001D01*
X80010000Y-143510000D02*
X76055001Y-139555001D01*
%TO.N,Net-(U1-Pad13)*%
X58564999Y-111615001D02*
X59690000Y-110490000D01*
X58564999Y-134764999D02*
X58564999Y-111615001D01*
X67310000Y-143510000D02*
X58564999Y-134764999D01*
%TO.N,Net-(U1-Pad5)*%
X76055001Y-156354999D02*
X74930000Y-157480000D01*
X76055001Y-144924999D02*
X76055001Y-156354999D01*
X77470000Y-143510000D02*
X76055001Y-144924999D01*
X73804999Y-134764999D02*
X64770000Y-125730000D01*
X73804999Y-139844999D02*
X73804999Y-134764999D01*
X77470000Y-143510000D02*
X73804999Y-139844999D01*
%TO.N,Net-(U1-Pad4)*%
X73515001Y-156354999D02*
X72390000Y-157480000D01*
X73515001Y-144924999D02*
X73515001Y-156354999D01*
X74930000Y-143510000D02*
X73515001Y-144924999D01*
X68435001Y-131935001D02*
X62230000Y-125730000D01*
X68435001Y-137015001D02*
X68435001Y-131935001D01*
X74930000Y-143510000D02*
X68435001Y-137015001D01*
%TO.N,Net-(U1-Pad3)*%
X71264999Y-156065001D02*
X69850000Y-157480000D01*
X71264999Y-144635001D02*
X71264999Y-156065001D01*
X72390000Y-143510000D02*
X71264999Y-144635001D01*
X65895001Y-131935001D02*
X59690000Y-125730000D01*
X65895001Y-137015001D02*
X65895001Y-131935001D01*
X72390000Y-143510000D02*
X65895001Y-137015001D01*
%TO.N,Net-(U1-Pad1)*%
X103689991Y-163010009D02*
X104140000Y-162560000D01*
X69250009Y-163010009D02*
X103689991Y-163010009D01*
X64770000Y-158530000D02*
X69250009Y-163010009D01*
X64770000Y-157480000D02*
X64770000Y-158530000D01*
%TO.N,Net-(U2-Pad14)*%
X109220000Y-143510000D02*
X109220000Y-151130000D01*
X113030000Y-139700000D02*
X109220000Y-143510000D01*
X118110000Y-139700000D02*
X113030000Y-139700000D01*
%TO.N,Net-(U2-Pad6)*%
X117965001Y-157624999D02*
X116840000Y-158750000D01*
X117965001Y-144924999D02*
X117965001Y-157624999D01*
X119380000Y-143510000D02*
X117965001Y-144924999D01*
X120505001Y-142384999D02*
X124315001Y-142384999D01*
X119380000Y-143510000D02*
X120505001Y-142384999D01*
X124315001Y-142384999D02*
X133350000Y-133350000D01*
X118185154Y-132155154D02*
X118110000Y-132080000D01*
X130885154Y-132155154D02*
X118185154Y-132155154D01*
%TO.N,Net-(U2-Pad13)*%
X107805001Y-152255001D02*
X109220000Y-153670000D01*
X107805001Y-144635001D02*
X107805001Y-152255001D01*
X106680000Y-143510000D02*
X107805001Y-144635001D01*
X111760000Y-153670000D02*
X111760000Y-151130000D01*
X104140000Y-120650000D02*
X100330000Y-120650000D01*
X106680000Y-149226410D02*
X106680000Y-143510000D01*
X105265001Y-150641409D02*
X106680000Y-149226410D01*
X105265001Y-151670001D02*
X105265001Y-150641409D01*
X104680001Y-152255001D02*
X105265001Y-151670001D01*
X103599999Y-152255001D02*
X104680001Y-152255001D01*
X100330000Y-148985002D02*
X103599999Y-152255001D01*
X100330000Y-135890000D02*
X100330000Y-148985002D01*
%TO.N,Net-(U2-Pad5)*%
X115425001Y-157624999D02*
X114300000Y-158750000D01*
X115425001Y-144924999D02*
X115425001Y-157624999D01*
X116840000Y-143510000D02*
X115425001Y-144924999D01*
X118063732Y-133106734D02*
X129933573Y-133106734D01*
X118271997Y-133314999D02*
X118063732Y-133106734D01*
X127000000Y-133314999D02*
X118271997Y-133314999D01*
%TO.N,Net-(U2-Pad12)*%
X101796998Y-121920000D02*
X101600000Y-121920000D01*
X104140000Y-121920000D02*
X101796998Y-121920000D01*
X99060000Y-136885009D02*
X99060000Y-143510000D01*
%TO.N,Net-(U2-Pad4)*%
X113174999Y-157335001D02*
X111760000Y-158750000D01*
X113174999Y-144635001D02*
X113174999Y-157335001D01*
X114300000Y-143510000D02*
X113174999Y-144635001D01*
X104140000Y-123190000D02*
X101600000Y-123190000D01*
X101600000Y-137160000D02*
X104140000Y-139700000D01*
X101600000Y-135890000D02*
X101600000Y-137160000D01*
X107874846Y-138505154D02*
X114224846Y-138505154D01*
X106680000Y-139700000D02*
X107874846Y-138505154D01*
%TO.N,Net-(U2-Pad11)*%
X97790000Y-138430000D02*
X97790000Y-135890000D01*
X109220000Y-107950000D02*
X111760000Y-110490000D01*
X104140000Y-107950000D02*
X109220000Y-107950000D01*
%TO.N,Net-(U2-Pad3)*%
X110634999Y-157335001D02*
X109220000Y-158750000D01*
X110634999Y-144635001D02*
X110634999Y-157335001D01*
X111760000Y-143510000D02*
X110634999Y-144635001D01*
X129489698Y-134039999D02*
X129514849Y-134014848D01*
X124460000Y-134039999D02*
X129489698Y-134039999D01*
X114615152Y-140654848D02*
X111760000Y-143510000D01*
X118425152Y-140654848D02*
X114615152Y-140654848D01*
%TO.N,Net-(U2-Pad9)*%
X147304846Y-125745154D02*
X147304846Y-106695154D01*
X121920000Y-151130000D02*
X147304846Y-125745154D01*
X135890000Y-92710000D02*
X135890000Y-87630000D01*
X147320000Y-104140000D02*
X135890000Y-92710000D01*
%TO.N,Net-(U3-Pad13)*%
X123190000Y-87630000D02*
X125730000Y-85090000D01*
X143255002Y-85090000D02*
X149860000Y-91694998D01*
X125730000Y-85090000D02*
X143255002Y-85090000D01*
X149860000Y-91694998D02*
X149860000Y-93980000D01*
X116527001Y-137740001D02*
X111760000Y-137740001D01*
X117761999Y-138974999D02*
X116527001Y-137740001D01*
X126699696Y-138974999D02*
X117761999Y-138974999D01*
X131704508Y-133970187D02*
X126699696Y-138974999D01*
%TO.N,Net-(U3-Pad12)*%
X111760000Y-133350000D02*
X114300000Y-135890000D01*
X93980000Y-133350000D02*
X111760000Y-133350000D01*
X119474999Y-86454999D02*
X120650000Y-87630000D01*
X116999999Y-86454999D02*
X119474999Y-86454999D01*
X116934999Y-86519999D02*
X116999999Y-86454999D01*
X116934999Y-90350003D02*
X116934999Y-86519999D01*
X113305002Y-93980000D02*
X116934999Y-90350003D01*
X104140000Y-93980000D02*
X113305002Y-93980000D01*
%TO.N,Net-(U3-Pad11)*%
X115714999Y-137015001D02*
X116840000Y-135890000D01*
X105901411Y-137015001D02*
X115714999Y-137015001D01*
X105265001Y-136378591D02*
X105901411Y-137015001D01*
X105265001Y-135349999D02*
X105265001Y-136378591D01*
X104680001Y-134764999D02*
X105265001Y-135349999D01*
X84311411Y-134764999D02*
X104680001Y-134764999D01*
X83675001Y-135401409D02*
X84311411Y-134764999D01*
X83090001Y-137015001D02*
X83675001Y-136430001D01*
X82009999Y-137015001D02*
X83090001Y-137015001D01*
X81424999Y-136430001D02*
X82009999Y-137015001D01*
X81424999Y-135349999D02*
X81424999Y-136430001D01*
X77470000Y-135890000D02*
X78740000Y-134620000D01*
X83675001Y-136430001D02*
X83675001Y-135401409D01*
X78740000Y-134620000D02*
X80643590Y-134620000D01*
X80643590Y-134620000D02*
X80498591Y-134764999D01*
X82009999Y-134764999D02*
X81424999Y-135349999D01*
X80498591Y-134764999D02*
X79469999Y-134764999D01*
X79469999Y-134764999D02*
X78884999Y-135349999D01*
X78884999Y-135349999D02*
X78884999Y-136430001D01*
X81135001Y-135401409D02*
X81916410Y-134620000D01*
X78884999Y-136430001D02*
X79469999Y-137015001D01*
X81916410Y-134620000D02*
X83183590Y-134620000D01*
X79469999Y-137015001D02*
X80550001Y-137015001D01*
X83183590Y-134620000D02*
X83038591Y-134764999D01*
X80550001Y-137015001D02*
X81135001Y-136430001D01*
X83038591Y-134764999D02*
X82009999Y-134764999D01*
X81135001Y-136430001D02*
X81135001Y-135401409D01*
X96520000Y-135890000D02*
X95394999Y-134764999D01*
%TO.N,Net-(U3-Pad10)*%
X116114999Y-132624999D02*
X119380000Y-135890000D01*
X83275001Y-132624999D02*
X116114999Y-132624999D01*
X80010000Y-135890000D02*
X83275001Y-132624999D01*
X120505001Y-134764999D02*
X119380000Y-135890000D01*
X129790003Y-134764999D02*
X120505001Y-134764999D01*
X139635029Y-124919973D02*
X129790003Y-134764999D01*
X138779202Y-108014970D02*
X139635029Y-108870797D01*
X135757972Y-108014970D02*
X138779202Y-108014970D01*
X133698001Y-105954999D02*
X135757972Y-108014970D01*
X123445001Y-105954999D02*
X133698001Y-105954999D01*
X123045001Y-105554999D02*
X123445001Y-105954999D01*
X123045001Y-95979999D02*
X123045001Y-105554999D01*
X139635029Y-108870797D02*
X139635029Y-124919973D01*
X118110000Y-91044998D02*
X123045001Y-95979999D01*
X118110000Y-87630000D02*
X118110000Y-91044998D01*
%TO.N,Net-(U3-Pad9)*%
X107644989Y-134314989D02*
X109220000Y-135890000D01*
X84125011Y-134314989D02*
X107644989Y-134314989D01*
X82550000Y-135890000D02*
X84125011Y-134314989D01*
%TO.N,Net-(U5-Pad27)*%
X87630000Y-125730000D02*
X87630000Y-123190000D01*
X103477247Y-130150067D02*
X130199933Y-130150067D01*
X96517180Y-123190000D02*
X103477247Y-130150067D01*
X130199933Y-130150067D02*
X134620000Y-125730000D01*
X87630000Y-123190000D02*
X96517180Y-123190000D01*
%TO.N,Net-(U5-Pad26)*%
X128109943Y-129700057D02*
X132080000Y-125730000D01*
X103663647Y-129700057D02*
X128109943Y-129700057D01*
X95883590Y-121920000D02*
X103663647Y-129700057D01*
X85090000Y-121920000D02*
X95883590Y-121920000D01*
X85090000Y-125730000D02*
X85090000Y-121920000D01*
X120650000Y-118110000D02*
X132080000Y-118110000D01*
X132080000Y-118110000D02*
X132080000Y-125730000D01*
%TO.N,Net-(U5-Pad25)*%
X82550000Y-125730000D02*
X82550000Y-120650000D01*
X126019953Y-129250047D02*
X129540000Y-125730000D01*
X95250000Y-120650000D02*
X103850047Y-129250047D01*
X103850047Y-129250047D02*
X126019953Y-129250047D01*
X82550000Y-120650000D02*
X95250000Y-120650000D01*
%TO.N,Net-(U5-Pad24)*%
X123929962Y-128800038D02*
X127000000Y-125730000D01*
X117579962Y-128800038D02*
X123929962Y-128800038D01*
X104220025Y-128350026D02*
X117129950Y-128350026D01*
X103625023Y-127755022D02*
X104220025Y-128350026D01*
X102114981Y-126642803D02*
X103227199Y-127755022D01*
X102114980Y-126244979D02*
X102114981Y-126642803D01*
X101825032Y-125955030D02*
X102114980Y-126244979D01*
X101191439Y-125955030D02*
X101825032Y-125955030D01*
X117129950Y-128350026D02*
X117579962Y-128800038D01*
X80010000Y-125730000D02*
X80010000Y-119380000D01*
X80010000Y-119380000D02*
X94616410Y-119380000D01*
X103227199Y-127755022D02*
X103625023Y-127755022D01*
X94616410Y-119380000D02*
X101191439Y-125955030D01*
X124460000Y-123190000D02*
X127000000Y-125730000D01*
X115570000Y-123190000D02*
X124460000Y-123190000D01*
%TO.N,Net-(U5-Pad10)*%
X103801995Y-112049945D02*
X112740055Y-112049945D01*
X72084988Y-105715012D02*
X82006401Y-105715012D01*
X112740055Y-112049945D02*
X114300000Y-110490000D01*
X82006401Y-105715012D02*
X82311415Y-105409999D01*
X97162049Y-105409999D02*
X103801995Y-112049945D01*
X82311415Y-105409999D02*
X97162049Y-105409999D01*
X67310000Y-110490000D02*
X72084988Y-105715012D01*
%TO.N,Net-(U5-Pad23)*%
X103413599Y-127305011D02*
X103811423Y-127305011D01*
X122289985Y-127900015D02*
X124460000Y-125730000D01*
X102564989Y-126058577D02*
X102564990Y-126456402D01*
X103811423Y-127305011D02*
X104406425Y-127900015D01*
X102011432Y-125505019D02*
X102564989Y-126058577D01*
X101377839Y-125505019D02*
X102011432Y-125505019D01*
X77470000Y-121283589D02*
X79823600Y-118929989D01*
X79823600Y-118929989D02*
X94802809Y-118929989D01*
X94802809Y-118929989D02*
X101377839Y-125505019D01*
X104406425Y-127900015D02*
X122289985Y-127900015D01*
X77470000Y-125730000D02*
X77470000Y-121283589D01*
X102564990Y-126456402D02*
X103413599Y-127305011D01*
%TO.N,Net-(U5-Pad9)*%
X82192802Y-106165022D02*
X82207868Y-106149957D01*
X82207868Y-106149957D02*
X97265596Y-106149957D01*
X69850000Y-110490000D02*
X74174977Y-106165023D01*
X97265596Y-106149957D02*
X103615595Y-112499956D01*
X74174977Y-106165023D02*
X82192802Y-106165022D01*
X103615595Y-112499956D02*
X114830044Y-112499956D01*
X114830044Y-112499956D02*
X116840000Y-110490000D01*
%TO.N,Net-(U5-Pad22)*%
X105994995Y-126999995D02*
X117473595Y-126999995D01*
X118839999Y-124604999D02*
X120794999Y-124604999D01*
X74930000Y-125730000D02*
X73804999Y-126855001D01*
X71849999Y-126855001D02*
X71264999Y-126270001D01*
X118254999Y-126218591D02*
X118254999Y-125189999D01*
X105265001Y-125189999D02*
X105265001Y-126270001D01*
X118254999Y-125189999D02*
X118839999Y-124604999D01*
X73804999Y-126855001D02*
X71849999Y-126855001D01*
X71264999Y-126270001D02*
X71264999Y-124948591D01*
X101750639Y-124604999D02*
X104680001Y-124604999D01*
X71264999Y-124948591D02*
X78633633Y-117579957D01*
X94725597Y-117579957D02*
X101750639Y-124604999D01*
X105265001Y-126270001D02*
X105994995Y-126999995D01*
X104680001Y-124604999D02*
X105265001Y-125189999D01*
X117473595Y-126999995D02*
X118254999Y-126218591D01*
X120794999Y-124604999D02*
X121920000Y-125730000D01*
X78633633Y-117579957D02*
X94725597Y-117579957D01*
%TO.N,Net-(U5-Pad8)*%
X82394265Y-106599968D02*
X97079200Y-106599968D01*
X74994968Y-106615032D02*
X82379201Y-106615032D01*
X97079200Y-106599968D02*
X103429199Y-112949967D01*
X103429199Y-112949967D02*
X116920033Y-112949967D01*
X72390000Y-110490000D02*
X72390000Y-109220000D01*
X116920033Y-112949967D02*
X119380000Y-110490000D01*
X72390000Y-109220000D02*
X74994968Y-106615032D01*
X82379201Y-106615032D02*
X82394265Y-106599968D01*
%TO.N,Net-(U5-Pad21)*%
X117659995Y-127450005D02*
X119380000Y-125730000D01*
X94539197Y-118029967D02*
X101564239Y-125055009D01*
X72390000Y-125730000D02*
X72390000Y-124460000D01*
X103014999Y-125872178D02*
X103014999Y-126270001D01*
X103599999Y-126855001D02*
X103997822Y-126855001D01*
X78820033Y-118029967D02*
X94539197Y-118029967D01*
X72390000Y-124460000D02*
X78820033Y-118029967D01*
X101564239Y-125055009D02*
X102197831Y-125055009D01*
X103997822Y-126855001D02*
X104592825Y-127450005D01*
X104592825Y-127450005D02*
X117659995Y-127450005D01*
X102197831Y-125055009D02*
X103014999Y-125872178D01*
X103014999Y-126270001D02*
X103599999Y-126855001D01*
%TO.N,Net-(U5-Pad7)*%
X74930000Y-110490000D02*
X74930000Y-108335039D01*
X119010022Y-113399978D02*
X121920000Y-110490000D01*
X82565601Y-107065043D02*
X82580665Y-107049979D01*
X96892801Y-107049979D02*
X103242800Y-113399978D01*
X82580665Y-107049979D02*
X96892801Y-107049979D01*
X76199996Y-107065043D02*
X82565601Y-107065043D01*
X103242800Y-113399978D02*
X119010022Y-113399978D01*
X74930000Y-108335039D02*
X76199996Y-107065043D01*
%TO.N,Net-(U5-Pad20)*%
X94911997Y-117129946D02*
X95362006Y-117579956D01*
X69850000Y-125730000D02*
X69850000Y-124598630D01*
X95362006Y-117579956D02*
X108689956Y-117579956D01*
X69850000Y-124598630D02*
X77318684Y-117129946D01*
X108689956Y-117579956D02*
X116840000Y-125730000D01*
X77318684Y-117129946D02*
X94911997Y-117129946D01*
X142334999Y-71025001D02*
X88994999Y-71025001D01*
X143510000Y-69850000D02*
X142334999Y-71025001D01*
X69611412Y-125730000D02*
X69850000Y-125730000D01*
X60815001Y-116933589D02*
X69611412Y-125730000D01*
X60815001Y-109949999D02*
X60815001Y-116933589D01*
X60230001Y-109364999D02*
X60815001Y-109949999D01*
X58564999Y-110978591D02*
X58564999Y-109949999D01*
X59149999Y-109364999D02*
X60230001Y-109364999D01*
X56609999Y-111615001D02*
X57928589Y-111615001D01*
X58564999Y-109949999D02*
X59149999Y-109364999D01*
X56024999Y-111030001D02*
X56609999Y-111615001D01*
X56024999Y-103995001D02*
X56024999Y-111030001D01*
X57928589Y-111615001D02*
X58564999Y-110978591D01*
X88994999Y-71025001D02*
X56024999Y-103995001D01*
%TO.N,Net-(U5-Pad6)*%
X82707805Y-107515058D02*
X82722873Y-107499990D01*
X77904942Y-107515058D02*
X82707805Y-107515058D01*
X121100011Y-113849989D02*
X124460000Y-110490000D01*
X82722873Y-107499990D02*
X96706396Y-107499990D01*
X77470000Y-110490000D02*
X77470000Y-107950000D01*
X103056395Y-113849989D02*
X121100011Y-113849989D01*
X77470000Y-107950000D02*
X77904942Y-107515058D01*
X96706396Y-107499990D02*
X103056395Y-113849989D01*
%TO.N,Net-(U5-Pad5)*%
X102870000Y-114300000D02*
X123190000Y-114300000D01*
X96535065Y-107965065D02*
X102870000Y-114300000D01*
X82938392Y-107965065D02*
X96535065Y-107965065D01*
X82938387Y-107965069D02*
X82938392Y-107965065D01*
X82938344Y-107965069D02*
X82938387Y-107965069D01*
X82938315Y-107965097D02*
X82938344Y-107965069D01*
X82931254Y-107965096D02*
X82938315Y-107965097D01*
X82926127Y-107969953D02*
X82931254Y-107965096D01*
X82908689Y-107969482D02*
X82926127Y-107969953D01*
X80010000Y-110490000D02*
X80010000Y-107965068D01*
X80010000Y-107965068D02*
X80085330Y-107965066D01*
X82895148Y-107981783D02*
X82895155Y-107981784D01*
X80085330Y-107965066D02*
X82287477Y-107965066D01*
X82895155Y-107981784D02*
X82908689Y-107969482D01*
X82287477Y-107965066D02*
X82327315Y-107965068D01*
X82833187Y-108003975D02*
X82833206Y-108003977D01*
X82327315Y-107965068D02*
X82656495Y-107990386D01*
X82833206Y-108003977D02*
X82860994Y-107980161D01*
X82656495Y-107990386D02*
X82833172Y-108003988D01*
X82860994Y-107980161D02*
X82895144Y-107981787D01*
X123190000Y-114300000D02*
X127000000Y-110490000D01*
X82833172Y-108003988D02*
X82833187Y-108003975D01*
X82895144Y-107981787D02*
X82895148Y-107981783D01*
%TO.N,Net-(U5-Pad4)*%
X95258462Y-116840000D02*
X134620000Y-116840000D01*
X138592801Y-108464979D02*
X131565021Y-108464979D01*
X139185019Y-112274981D02*
X139185019Y-109057197D01*
X88739935Y-116679935D02*
X95098397Y-116679935D01*
X82550000Y-110490000D02*
X88739935Y-116679935D01*
X95098397Y-116679935D02*
X95258462Y-116840000D01*
X139185019Y-109057197D02*
X138592801Y-108464979D01*
X134620000Y-116840000D02*
X139185019Y-112274981D01*
X131565021Y-108464979D02*
X129540000Y-110490000D01*
%TO.N,Net-(U5-Pad3)*%
X133655011Y-108914989D02*
X132080000Y-110490000D01*
X138406401Y-108914989D02*
X133655011Y-108914989D01*
X138735010Y-109243598D02*
X138406401Y-108914989D01*
X138735011Y-111736401D02*
X138735010Y-109243598D01*
X134821385Y-115650027D02*
X138735011Y-111736401D01*
X90250027Y-115650027D02*
X134821385Y-115650027D01*
X85090000Y-110490000D02*
X90250027Y-115650027D01*
%TO.N,Net-(U5-Pad2)*%
X135745001Y-109364999D02*
X134620000Y-110490000D01*
X138285001Y-109429999D02*
X138220001Y-109364999D01*
X138285001Y-111550001D02*
X138285001Y-109429999D01*
X134634984Y-115200018D02*
X138285001Y-111550001D01*
X92340018Y-115200018D02*
X134634984Y-115200018D01*
X138220001Y-109364999D02*
X135745001Y-109364999D01*
X87630000Y-110490000D02*
X92340018Y-115200018D01*
X121920000Y-106680000D02*
X119380000Y-104140000D01*
X133350000Y-106680000D02*
X121920000Y-106680000D01*
%TO.N,Net-(U5-Pad1)*%
X90170000Y-110490000D02*
X90170000Y-111760000D01*
X132899991Y-114750009D02*
X137160000Y-110490000D01*
X93160009Y-114750009D02*
X132899991Y-114750009D01*
X90170000Y-111760000D02*
X93160009Y-114750009D01*
X135890000Y-105410000D02*
X137160000Y-106680000D01*
X125730000Y-105410000D02*
X135890000Y-105410000D01*
X124460000Y-104140000D02*
X125730000Y-105410000D01*
%TO.N,Net-(U7-Pad14)*%
X80010000Y-87630000D02*
X71120000Y-96520000D01*
X95250000Y-87630000D02*
X80010000Y-87630000D01*
%TO.N,Net-(U7-Pad12)*%
X105410000Y-87630000D02*
X105410000Y-89175002D01*
X121045002Y-96520000D02*
X121920000Y-96520000D01*
X119775002Y-95250000D02*
X121045002Y-96520000D01*
X101600000Y-95250000D02*
X119775002Y-95250000D01*
%TO.N,Net-(U7-Pad11)*%
X80315011Y-94944989D02*
X78740000Y-96520000D01*
X92020013Y-94944989D02*
X80315011Y-94944989D01*
X97790000Y-89175002D02*
X92020013Y-94944989D01*
X97790000Y-87630000D02*
X97790000Y-89175002D01*
X98639999Y-91860001D02*
X97790000Y-92710000D01*
X98639999Y-88479999D02*
X98639999Y-91860001D01*
X97790000Y-87630000D02*
X98639999Y-88479999D01*
X110490000Y-92710000D02*
X105410000Y-92710000D01*
%TO.N,Net-(U7-Pad10)*%
X82405001Y-95394999D02*
X81280000Y-96520000D01*
X96650003Y-95394999D02*
X82405001Y-95394999D01*
X102870000Y-89175002D02*
X96650003Y-95394999D01*
X102870000Y-87630000D02*
X102870000Y-89175002D01*
X105410000Y-91440000D02*
X110490000Y-91440000D01*
%TO.N,Net-(U7-Pad9)*%
X111219999Y-97645001D02*
X115714999Y-97645001D01*
X110094998Y-96520000D02*
X111219999Y-97645001D01*
X115714999Y-97645001D02*
X116840000Y-96520000D01*
X83820000Y-96520000D02*
X110094998Y-96520000D01*
%TO.N,Net-(U1-Pad16)*%
X132289924Y-130600076D02*
X137160000Y-125730000D01*
X97790000Y-125730000D02*
X102660076Y-130600076D01*
X102660076Y-130600076D02*
X132289924Y-130600076D01*
X90170000Y-125730000D02*
X97790000Y-125730000D01*
X104140000Y-97790000D02*
X99060000Y-97790000D01*
X105265001Y-150004999D02*
X105265001Y-137015001D01*
X105265001Y-137015001D02*
X104140000Y-135890000D01*
X104140000Y-151130000D02*
X105265001Y-150004999D01*
X64770000Y-149860000D02*
X64770000Y-146050000D01*
X64770000Y-135890000D02*
X60960000Y-132080000D01*
X88594990Y-127305010D02*
X90170000Y-125730000D01*
X68724999Y-126270001D02*
X69760008Y-127305010D01*
X69760008Y-127305010D02*
X88594990Y-127305010D01*
X66435002Y-123190000D02*
X68724999Y-125479997D01*
X68724999Y-125479997D02*
X68724999Y-126270001D01*
X60960000Y-123190000D02*
X66435002Y-123190000D01*
X64770000Y-97790000D02*
X66040000Y-96520000D01*
X63500000Y-97790000D02*
X64770000Y-97790000D01*
%TO.N,Net-(U1-Pad2)*%
X67310000Y-157480000D02*
X67310000Y-160020000D01*
X67310000Y-160020000D02*
X69850000Y-162560000D01*
X102870000Y-162560000D02*
X106680000Y-158750000D01*
X69850000Y-162560000D02*
X102870000Y-162560000D01*
X106680000Y-158750000D02*
X106680000Y-161290000D01*
X106680000Y-161290000D02*
X107950000Y-162560000D01*
X107950000Y-162560000D02*
X148590000Y-162560000D01*
X130810000Y-89175002D02*
X130810000Y-87630000D01*
X148590000Y-106955002D02*
X130810000Y-89175002D01*
X148590000Y-162560000D02*
X148590000Y-106955002D01*
%TD*%
M02*
