%TF.GenerationSoftware,KiCad,Pcbnew,5.1.10*%
%TF.CreationDate,2021-08-11T14:36:07-04:00*%
%TF.ProjectId,TestSchematic,54657374-5363-4686-956d-617469632e6b,rev?*%
%TF.SameCoordinates,Original*%
%TF.FileFunction,Legend,Top*%
%TF.FilePolarity,Positive*%
%FSLAX46Y46*%
G04 Gerber Fmt 4.6, Leading zero omitted, Abs format (unit mm)*
G04 Created by KiCad (PCBNEW 5.1.10) date 2021-08-11 14:36:07*
%MOMM*%
%LPD*%
G01*
G04 APERTURE LIST*
%ADD10C,0.120000*%
%ADD11C,0.150000*%
G04 APERTURE END LIST*
D10*
%TO.C,U9*%
X93880000Y-89240000D02*
X93880000Y-68240000D01*
X144880000Y-82440000D02*
X144880000Y-89240000D01*
X96547000Y-89240000D02*
X96547000Y-86233000D01*
X96547000Y-86233000D02*
X93880000Y-86233000D01*
X93880000Y-89240000D02*
X94180000Y-89240000D01*
X96280000Y-89240000D02*
X96680000Y-89240000D01*
X98880000Y-89240000D02*
X99280000Y-89240000D01*
X101380000Y-89240000D02*
X101780000Y-89240000D01*
X103980000Y-89240000D02*
X104380000Y-89240000D01*
X106480000Y-89240000D02*
X106880000Y-89240000D01*
X108980000Y-89240000D02*
X109380000Y-89240000D01*
X111580000Y-89240000D02*
X111980000Y-89240000D01*
X114080000Y-89240000D02*
X114480000Y-89240000D01*
X116680000Y-89240000D02*
X117080000Y-89240000D01*
X119180000Y-89240000D02*
X119580000Y-89240000D01*
X121680000Y-89240000D02*
X122080000Y-89240000D01*
X124280000Y-89240000D02*
X124680000Y-89240000D01*
X126780000Y-89240000D02*
X127180000Y-89240000D01*
X129380000Y-89240000D02*
X129780000Y-89240000D01*
X131880000Y-89240000D02*
X132280000Y-89240000D01*
X134480000Y-89240000D02*
X134880000Y-89240000D01*
X136980000Y-89240000D02*
X137380000Y-89240000D01*
X139480000Y-89240000D02*
X139880000Y-89240000D01*
X142080000Y-89240000D02*
X142480000Y-89240000D01*
X108980000Y-68240000D02*
X109380000Y-68240000D01*
X114080000Y-68240000D02*
X114480000Y-68240000D01*
X121680000Y-68240000D02*
X122080000Y-68240000D01*
X129380000Y-68240000D02*
X129780000Y-68240000D01*
X98880000Y-68240000D02*
X99280000Y-68240000D01*
X96280000Y-68240000D02*
X96680000Y-68240000D01*
X103980000Y-68240000D02*
X104380000Y-68240000D01*
X136980000Y-68240000D02*
X137380000Y-68240000D01*
X142080000Y-68240000D02*
X142480000Y-68240000D01*
X139480000Y-68240000D02*
X139880000Y-68240000D01*
X124280000Y-68240000D02*
X124680000Y-68240000D01*
X119180000Y-68240000D02*
X119580000Y-68240000D01*
X106480000Y-68240000D02*
X106880000Y-68240000D01*
X111580000Y-68240000D02*
X111980000Y-68240000D01*
X131880000Y-68240000D02*
X132280000Y-68240000D01*
X116680000Y-68240000D02*
X117080000Y-68240000D01*
X93880000Y-68240000D02*
X94180000Y-68240000D01*
X101380000Y-68240000D02*
X101780000Y-68240000D01*
X126780000Y-68240000D02*
X127180000Y-68240000D01*
X134480000Y-68240000D02*
X134880000Y-68240000D01*
X144880000Y-68240000D02*
X144880000Y-75040000D01*
X144880000Y-80240000D02*
X144880000Y-79840000D01*
X144880000Y-77640000D02*
X144880000Y-77240000D01*
%TO.C,U8*%
X110370000Y-95190000D02*
X110370000Y-105470000D01*
X130930000Y-95190000D02*
X110370000Y-95190000D01*
X130930000Y-105470000D02*
X130930000Y-95190000D01*
X110370000Y-105470000D02*
X130930000Y-105470000D01*
X110430000Y-97680000D02*
X110430000Y-99330000D01*
X130870000Y-97680000D02*
X110430000Y-97680000D01*
X130870000Y-102980000D02*
X130870000Y-97680000D01*
X110430000Y-102980000D02*
X130870000Y-102980000D01*
X110430000Y-101330000D02*
X110430000Y-102980000D01*
X110430000Y-99330000D02*
G75*
G02*
X110430000Y-101330000I0J-1000000D01*
G01*
%TO.C,U7*%
X64650000Y-95190000D02*
X64650000Y-105470000D01*
X85210000Y-95190000D02*
X64650000Y-95190000D01*
X85210000Y-105470000D02*
X85210000Y-95190000D01*
X64650000Y-105470000D02*
X85210000Y-105470000D01*
X64710000Y-97680000D02*
X64710000Y-99330000D01*
X85150000Y-97680000D02*
X64710000Y-97680000D01*
X85150000Y-102980000D02*
X85150000Y-97680000D01*
X64710000Y-102980000D02*
X85150000Y-102980000D01*
X64710000Y-101330000D02*
X64710000Y-102980000D01*
X64710000Y-99330000D02*
G75*
G02*
X64710000Y-101330000I0J-1000000D01*
G01*
%TO.C,U6*%
X138490000Y-119110000D02*
G75*
G02*
X138490000Y-117110000I0J1000000D01*
G01*
X138490000Y-117110000D02*
X138490000Y-111650000D01*
X138490000Y-111650000D02*
X102810000Y-111650000D01*
X102810000Y-111650000D02*
X102810000Y-124570000D01*
X102810000Y-124570000D02*
X138490000Y-124570000D01*
X138490000Y-124570000D02*
X138490000Y-119110000D01*
%TO.C,U5*%
X91500000Y-119110000D02*
G75*
G02*
X91500000Y-117110000I0J1000000D01*
G01*
X91500000Y-117110000D02*
X91500000Y-111650000D01*
X91500000Y-111650000D02*
X55820000Y-111650000D01*
X55820000Y-111650000D02*
X55820000Y-124570000D01*
X55820000Y-124570000D02*
X91500000Y-124570000D01*
X91500000Y-124570000D02*
X91500000Y-119110000D01*
%TO.C,U4*%
X102810000Y-138700000D02*
G75*
G02*
X102810000Y-140700000I0J-1000000D01*
G01*
X102810000Y-140700000D02*
X102810000Y-142350000D01*
X102810000Y-142350000D02*
X123250000Y-142350000D01*
X123250000Y-142350000D02*
X123250000Y-137050000D01*
X123250000Y-137050000D02*
X102810000Y-137050000D01*
X102810000Y-137050000D02*
X102810000Y-138700000D01*
X102750000Y-144840000D02*
X123310000Y-144840000D01*
X123310000Y-144840000D02*
X123310000Y-134560000D01*
X123310000Y-134560000D02*
X102750000Y-134560000D01*
X102750000Y-134560000D02*
X102750000Y-144840000D01*
%TO.C,U3*%
X63440000Y-138700000D02*
G75*
G02*
X63440000Y-140700000I0J-1000000D01*
G01*
X63440000Y-140700000D02*
X63440000Y-142350000D01*
X63440000Y-142350000D02*
X83880000Y-142350000D01*
X83880000Y-142350000D02*
X83880000Y-137050000D01*
X83880000Y-137050000D02*
X63440000Y-137050000D01*
X63440000Y-137050000D02*
X63440000Y-138700000D01*
X63380000Y-144840000D02*
X83940000Y-144840000D01*
X83940000Y-144840000D02*
X83940000Y-134560000D01*
X83940000Y-134560000D02*
X63380000Y-134560000D01*
X63380000Y-134560000D02*
X63380000Y-144840000D01*
%TO.C,U2*%
X102750000Y-149800000D02*
X102750000Y-160080000D01*
X123310000Y-149800000D02*
X102750000Y-149800000D01*
X123310000Y-160080000D02*
X123310000Y-149800000D01*
X102750000Y-160080000D02*
X123310000Y-160080000D01*
X102810000Y-152290000D02*
X102810000Y-153940000D01*
X123250000Y-152290000D02*
X102810000Y-152290000D01*
X123250000Y-157590000D02*
X123250000Y-152290000D01*
X102810000Y-157590000D02*
X123250000Y-157590000D01*
X102810000Y-155940000D02*
X102810000Y-157590000D01*
X102810000Y-153940000D02*
G75*
G02*
X102810000Y-155940000I0J-1000000D01*
G01*
%TO.C,U1*%
X63440000Y-152670000D02*
G75*
G02*
X63440000Y-154670000I0J-1000000D01*
G01*
X63440000Y-154670000D02*
X63440000Y-156320000D01*
X63440000Y-156320000D02*
X83880000Y-156320000D01*
X83880000Y-156320000D02*
X83880000Y-151020000D01*
X83880000Y-151020000D02*
X63440000Y-151020000D01*
X63440000Y-151020000D02*
X63440000Y-152670000D01*
X63380000Y-158810000D02*
X83940000Y-158810000D01*
X83940000Y-158810000D02*
X83940000Y-148530000D01*
X83940000Y-148530000D02*
X63380000Y-148530000D01*
X63380000Y-148530000D02*
X63380000Y-158810000D01*
%TO.C,U9*%
D11*
X118832380Y-79501904D02*
X119641904Y-79501904D01*
X119737142Y-79454285D01*
X119784761Y-79406666D01*
X119832380Y-79311428D01*
X119832380Y-79120952D01*
X119784761Y-79025714D01*
X119737142Y-78978095D01*
X119641904Y-78930476D01*
X118832380Y-78930476D01*
X119832380Y-78406666D02*
X119832380Y-78216190D01*
X119784761Y-78120952D01*
X119737142Y-78073333D01*
X119594285Y-77978095D01*
X119403809Y-77930476D01*
X119022857Y-77930476D01*
X118927619Y-77978095D01*
X118880000Y-78025714D01*
X118832380Y-78120952D01*
X118832380Y-78311428D01*
X118880000Y-78406666D01*
X118927619Y-78454285D01*
X119022857Y-78501904D01*
X119260952Y-78501904D01*
X119356190Y-78454285D01*
X119403809Y-78406666D01*
X119451428Y-78311428D01*
X119451428Y-78120952D01*
X119403809Y-78025714D01*
X119356190Y-77978095D01*
X119260952Y-77930476D01*
X97658781Y-90953096D02*
X97631844Y-90872284D01*
X97551032Y-90791471D01*
X97443282Y-90737597D01*
X97335532Y-90737597D01*
X97254720Y-90764534D01*
X97120033Y-90845346D01*
X97039221Y-90926158D01*
X96958409Y-91060845D01*
X96931471Y-91141658D01*
X96931471Y-91249407D01*
X96985346Y-91357157D01*
X97039221Y-91411032D01*
X97146971Y-91464906D01*
X97200845Y-91464906D01*
X97389407Y-91276345D01*
X97281658Y-91168595D01*
X97389407Y-91761218D02*
X97955093Y-91195532D01*
X98170592Y-91411032D01*
X98197529Y-91491844D01*
X98197529Y-91545719D01*
X98170592Y-91626531D01*
X98089780Y-91707343D01*
X98008967Y-91734280D01*
X97955093Y-91734280D01*
X97874280Y-91707343D01*
X97658781Y-91491844D01*
X98251404Y-92623215D02*
X97928155Y-92299966D01*
X98089780Y-92461590D02*
X98655465Y-91895905D01*
X98520778Y-91922842D01*
X98413028Y-91922842D01*
X98332216Y-91895905D01*
X102748781Y-90953096D02*
X102721844Y-90872284D01*
X102641032Y-90791471D01*
X102533282Y-90737597D01*
X102425532Y-90737597D01*
X102344720Y-90764534D01*
X102210033Y-90845346D01*
X102129221Y-90926158D01*
X102048409Y-91060845D01*
X102021471Y-91141658D01*
X102021471Y-91249407D01*
X102075346Y-91357157D01*
X102129221Y-91411032D01*
X102236971Y-91464906D01*
X102290845Y-91464906D01*
X102479407Y-91276345D01*
X102371658Y-91168595D01*
X102479407Y-91761218D02*
X103045093Y-91195532D01*
X103260592Y-91411032D01*
X103287529Y-91491844D01*
X103287529Y-91545719D01*
X103260592Y-91626531D01*
X103179780Y-91707343D01*
X103098967Y-91734280D01*
X103045093Y-91734280D01*
X102964280Y-91707343D01*
X102748781Y-91491844D01*
X103529966Y-91788155D02*
X103583841Y-91788155D01*
X103664653Y-91815093D01*
X103799340Y-91949780D01*
X103826277Y-92030592D01*
X103826277Y-92084467D01*
X103799340Y-92165279D01*
X103745465Y-92219154D01*
X103637715Y-92273028D01*
X102991218Y-92273028D01*
X103341404Y-92623215D01*
X95128781Y-90853096D02*
X95101844Y-90772284D01*
X95021032Y-90691471D01*
X94913282Y-90637597D01*
X94805532Y-90637597D01*
X94724720Y-90664534D01*
X94590033Y-90745346D01*
X94509221Y-90826158D01*
X94428409Y-90960845D01*
X94401471Y-91041658D01*
X94401471Y-91149407D01*
X94455346Y-91257157D01*
X94509221Y-91311032D01*
X94616971Y-91364906D01*
X94670845Y-91364906D01*
X94859407Y-91176345D01*
X94751658Y-91068595D01*
X94859407Y-91661218D02*
X95425093Y-91095532D01*
X95640592Y-91311032D01*
X95667529Y-91391844D01*
X95667529Y-91445719D01*
X95640592Y-91526531D01*
X95559780Y-91607343D01*
X95478967Y-91634280D01*
X95425093Y-91634280D01*
X95344280Y-91607343D01*
X95128781Y-91391844D01*
X96098528Y-91768967D02*
X96152402Y-91822842D01*
X96179340Y-91903654D01*
X96179340Y-91957529D01*
X96152402Y-92038341D01*
X96071590Y-92173028D01*
X95936903Y-92307715D01*
X95802216Y-92388528D01*
X95721404Y-92415465D01*
X95667529Y-92415465D01*
X95586717Y-92388528D01*
X95532842Y-92334653D01*
X95505905Y-92253841D01*
X95505905Y-92199966D01*
X95532842Y-92119154D01*
X95613654Y-91984467D01*
X95748341Y-91849780D01*
X95883028Y-91768967D01*
X95963841Y-91742030D01*
X96017715Y-91742030D01*
X96098528Y-91768967D01*
X105288781Y-90853096D02*
X105261844Y-90772284D01*
X105181032Y-90691471D01*
X105073282Y-90637597D01*
X104965532Y-90637597D01*
X104884720Y-90664534D01*
X104750033Y-90745346D01*
X104669221Y-90826158D01*
X104588409Y-90960845D01*
X104561471Y-91041658D01*
X104561471Y-91149407D01*
X104615346Y-91257157D01*
X104669221Y-91311032D01*
X104776971Y-91364906D01*
X104830845Y-91364906D01*
X105019407Y-91176345D01*
X104911658Y-91068595D01*
X105019407Y-91661218D02*
X105585093Y-91095532D01*
X105800592Y-91311032D01*
X105827529Y-91391844D01*
X105827529Y-91445719D01*
X105800592Y-91526531D01*
X105719780Y-91607343D01*
X105638967Y-91634280D01*
X105585093Y-91634280D01*
X105504280Y-91607343D01*
X105288781Y-91391844D01*
X106096903Y-91607343D02*
X106447089Y-91957529D01*
X106043028Y-91984467D01*
X106123841Y-92065279D01*
X106150778Y-92146091D01*
X106150778Y-92199966D01*
X106123841Y-92280778D01*
X105989154Y-92415465D01*
X105908341Y-92442402D01*
X105854467Y-92442402D01*
X105773654Y-92415465D01*
X105612030Y-92253841D01*
X105585093Y-92173028D01*
X105585093Y-92119154D01*
X107828781Y-90853096D02*
X107801844Y-90772284D01*
X107721032Y-90691471D01*
X107613282Y-90637597D01*
X107505532Y-90637597D01*
X107424720Y-90664534D01*
X107290033Y-90745346D01*
X107209221Y-90826158D01*
X107128409Y-90960845D01*
X107101471Y-91041658D01*
X107101471Y-91149407D01*
X107155346Y-91257157D01*
X107209221Y-91311032D01*
X107316971Y-91364906D01*
X107370845Y-91364906D01*
X107559407Y-91176345D01*
X107451658Y-91068595D01*
X107559407Y-91661218D02*
X108125093Y-91095532D01*
X108340592Y-91311032D01*
X108367529Y-91391844D01*
X108367529Y-91445719D01*
X108340592Y-91526531D01*
X108259780Y-91607343D01*
X108178967Y-91634280D01*
X108125093Y-91634280D01*
X108044280Y-91607343D01*
X107828781Y-91391844D01*
X108744653Y-92092216D02*
X108367529Y-92469340D01*
X108825465Y-91742030D02*
X108286717Y-92011404D01*
X108636903Y-92361590D01*
X110368781Y-90853096D02*
X110341844Y-90772284D01*
X110261032Y-90691471D01*
X110153282Y-90637597D01*
X110045532Y-90637597D01*
X109964720Y-90664534D01*
X109830033Y-90745346D01*
X109749221Y-90826158D01*
X109668409Y-90960845D01*
X109641471Y-91041658D01*
X109641471Y-91149407D01*
X109695346Y-91257157D01*
X109749221Y-91311032D01*
X109856971Y-91364906D01*
X109910845Y-91364906D01*
X110099407Y-91176345D01*
X109991658Y-91068595D01*
X110099407Y-91661218D02*
X110665093Y-91095532D01*
X110880592Y-91311032D01*
X110907529Y-91391844D01*
X110907529Y-91445719D01*
X110880592Y-91526531D01*
X110799780Y-91607343D01*
X110718967Y-91634280D01*
X110665093Y-91634280D01*
X110584280Y-91607343D01*
X110368781Y-91391844D01*
X111500152Y-91930592D02*
X111230778Y-91661218D01*
X110934467Y-91903654D01*
X110988341Y-91903654D01*
X111069154Y-91930592D01*
X111203841Y-92065279D01*
X111230778Y-92146091D01*
X111230778Y-92199966D01*
X111203841Y-92280778D01*
X111069154Y-92415465D01*
X110988341Y-92442402D01*
X110934467Y-92442402D01*
X110853654Y-92415465D01*
X110718967Y-92280778D01*
X110692030Y-92199966D01*
X110692030Y-92146091D01*
X115448781Y-90853096D02*
X115421844Y-90772284D01*
X115341032Y-90691471D01*
X115233282Y-90637597D01*
X115125532Y-90637597D01*
X115044720Y-90664534D01*
X114910033Y-90745346D01*
X114829221Y-90826158D01*
X114748409Y-90960845D01*
X114721471Y-91041658D01*
X114721471Y-91149407D01*
X114775346Y-91257157D01*
X114829221Y-91311032D01*
X114936971Y-91364906D01*
X114990845Y-91364906D01*
X115179407Y-91176345D01*
X115071658Y-91068595D01*
X115179407Y-91661218D02*
X115745093Y-91095532D01*
X115960592Y-91311032D01*
X115987529Y-91391844D01*
X115987529Y-91445719D01*
X115960592Y-91526531D01*
X115879780Y-91607343D01*
X115798967Y-91634280D01*
X115745093Y-91634280D01*
X115664280Y-91607343D01*
X115448781Y-91391844D01*
X116553215Y-91903654D02*
X116445465Y-91795905D01*
X116364653Y-91768967D01*
X116310778Y-91768967D01*
X116176091Y-91795905D01*
X116041404Y-91876717D01*
X115825905Y-92092216D01*
X115798967Y-92173028D01*
X115798967Y-92226903D01*
X115825905Y-92307715D01*
X115933654Y-92415465D01*
X116014467Y-92442402D01*
X116068341Y-92442402D01*
X116149154Y-92415465D01*
X116283841Y-92280778D01*
X116310778Y-92199966D01*
X116310778Y-92146091D01*
X116283841Y-92065279D01*
X116176091Y-91957529D01*
X116095279Y-91930592D01*
X116041404Y-91930592D01*
X115960592Y-91957529D01*
X117958781Y-90753096D02*
X117931844Y-90672284D01*
X117851032Y-90591471D01*
X117743282Y-90537597D01*
X117635532Y-90537597D01*
X117554720Y-90564534D01*
X117420033Y-90645346D01*
X117339221Y-90726158D01*
X117258409Y-90860845D01*
X117231471Y-90941658D01*
X117231471Y-91049407D01*
X117285346Y-91157157D01*
X117339221Y-91211032D01*
X117446971Y-91264906D01*
X117500845Y-91264906D01*
X117689407Y-91076345D01*
X117581658Y-90968595D01*
X117689407Y-91561218D02*
X118255093Y-90995532D01*
X118470592Y-91211032D01*
X118497529Y-91291844D01*
X118497529Y-91345719D01*
X118470592Y-91426531D01*
X118389780Y-91507343D01*
X118308967Y-91534280D01*
X118255093Y-91534280D01*
X118174280Y-91507343D01*
X117958781Y-91291844D01*
X118766903Y-91507343D02*
X119144027Y-91884467D01*
X118335905Y-92207715D01*
X120528781Y-90853096D02*
X120501844Y-90772284D01*
X120421032Y-90691471D01*
X120313282Y-90637597D01*
X120205532Y-90637597D01*
X120124720Y-90664534D01*
X119990033Y-90745346D01*
X119909221Y-90826158D01*
X119828409Y-90960845D01*
X119801471Y-91041658D01*
X119801471Y-91149407D01*
X119855346Y-91257157D01*
X119909221Y-91311032D01*
X120016971Y-91364906D01*
X120070845Y-91364906D01*
X120259407Y-91176345D01*
X120151658Y-91068595D01*
X120259407Y-91661218D02*
X120825093Y-91095532D01*
X121040592Y-91311032D01*
X121067529Y-91391844D01*
X121067529Y-91445719D01*
X121040592Y-91526531D01*
X120959780Y-91607343D01*
X120878967Y-91634280D01*
X120825093Y-91634280D01*
X120744280Y-91607343D01*
X120528781Y-91391844D01*
X121229154Y-91984467D02*
X121202216Y-91903654D01*
X121202216Y-91849780D01*
X121229154Y-91768967D01*
X121256091Y-91742030D01*
X121336903Y-91715093D01*
X121390778Y-91715093D01*
X121471590Y-91742030D01*
X121579340Y-91849780D01*
X121606277Y-91930592D01*
X121606277Y-91984467D01*
X121579340Y-92065279D01*
X121552402Y-92092216D01*
X121471590Y-92119154D01*
X121417715Y-92119154D01*
X121336903Y-92092216D01*
X121229154Y-91984467D01*
X121148341Y-91957529D01*
X121094467Y-91957529D01*
X121013654Y-91984467D01*
X120905905Y-92092216D01*
X120878967Y-92173028D01*
X120878967Y-92226903D01*
X120905905Y-92307715D01*
X121013654Y-92415465D01*
X121094467Y-92442402D01*
X121148341Y-92442402D01*
X121229154Y-92415465D01*
X121336903Y-92307715D01*
X121363841Y-92226903D01*
X121363841Y-92173028D01*
X121336903Y-92092216D01*
X123068781Y-90853096D02*
X123041844Y-90772284D01*
X122961032Y-90691471D01*
X122853282Y-90637597D01*
X122745532Y-90637597D01*
X122664720Y-90664534D01*
X122530033Y-90745346D01*
X122449221Y-90826158D01*
X122368409Y-90960845D01*
X122341471Y-91041658D01*
X122341471Y-91149407D01*
X122395346Y-91257157D01*
X122449221Y-91311032D01*
X122556971Y-91364906D01*
X122610845Y-91364906D01*
X122799407Y-91176345D01*
X122691658Y-91068595D01*
X122799407Y-91661218D02*
X123365093Y-91095532D01*
X123580592Y-91311032D01*
X123607529Y-91391844D01*
X123607529Y-91445719D01*
X123580592Y-91526531D01*
X123499780Y-91607343D01*
X123418967Y-91634280D01*
X123365093Y-91634280D01*
X123284280Y-91607343D01*
X123068781Y-91391844D01*
X123392030Y-92253841D02*
X123499780Y-92361590D01*
X123580592Y-92388528D01*
X123634467Y-92388528D01*
X123769154Y-92361590D01*
X123903841Y-92280778D01*
X124119340Y-92065279D01*
X124146277Y-91984467D01*
X124146277Y-91930592D01*
X124119340Y-91849780D01*
X124011590Y-91742030D01*
X123930778Y-91715093D01*
X123876903Y-91715093D01*
X123796091Y-91742030D01*
X123661404Y-91876717D01*
X123634467Y-91957529D01*
X123634467Y-92011404D01*
X123661404Y-92092216D01*
X123769154Y-92199966D01*
X123849966Y-92226903D01*
X123903841Y-92226903D01*
X123984653Y-92199966D01*
X127879407Y-90837722D02*
X127852470Y-90756910D01*
X127771658Y-90676097D01*
X127663908Y-90622223D01*
X127556158Y-90622223D01*
X127475346Y-90649160D01*
X127340659Y-90729972D01*
X127259847Y-90810784D01*
X127179035Y-90945471D01*
X127152097Y-91026284D01*
X127152097Y-91134033D01*
X127205972Y-91241783D01*
X127259847Y-91295658D01*
X127367597Y-91349532D01*
X127421471Y-91349532D01*
X127610033Y-91160971D01*
X127502284Y-91053221D01*
X127610033Y-91645844D02*
X128175719Y-91080158D01*
X128391218Y-91295658D01*
X128418155Y-91376470D01*
X128418155Y-91430345D01*
X128391218Y-91511157D01*
X128310406Y-91591969D01*
X128229593Y-91618906D01*
X128175719Y-91618906D01*
X128094906Y-91591969D01*
X127879407Y-91376470D01*
X128472030Y-92507841D02*
X128148781Y-92184592D01*
X128310406Y-92346216D02*
X128876091Y-91780531D01*
X128741404Y-91807468D01*
X128633654Y-91807468D01*
X128552842Y-91780531D01*
X129387902Y-92292341D02*
X129441776Y-92346216D01*
X129468714Y-92427028D01*
X129468714Y-92480903D01*
X129441776Y-92561715D01*
X129360964Y-92696402D01*
X129226277Y-92831089D01*
X129091590Y-92911902D01*
X129010778Y-92938839D01*
X128956903Y-92938839D01*
X128876091Y-92911902D01*
X128822216Y-92858027D01*
X128795279Y-92777215D01*
X128795279Y-92723340D01*
X128822216Y-92642528D01*
X128903028Y-92507841D01*
X129037715Y-92373154D01*
X129172402Y-92292341D01*
X129253215Y-92265404D01*
X129307089Y-92265404D01*
X129387902Y-92292341D01*
X130419407Y-90983722D02*
X130392470Y-90902910D01*
X130311658Y-90822097D01*
X130203908Y-90768223D01*
X130096158Y-90768223D01*
X130015346Y-90795160D01*
X129880659Y-90875972D01*
X129799847Y-90956784D01*
X129719035Y-91091471D01*
X129692097Y-91172284D01*
X129692097Y-91280033D01*
X129745972Y-91387783D01*
X129799847Y-91441658D01*
X129907597Y-91495532D01*
X129961471Y-91495532D01*
X130150033Y-91306971D01*
X130042284Y-91199221D01*
X130150033Y-91791844D02*
X130715719Y-91226158D01*
X130931218Y-91441658D01*
X130958155Y-91522470D01*
X130958155Y-91576345D01*
X130931218Y-91657157D01*
X130850406Y-91737969D01*
X130769593Y-91764906D01*
X130715719Y-91764906D01*
X130634906Y-91737969D01*
X130419407Y-91522470D01*
X131012030Y-92653841D02*
X130688781Y-92330592D01*
X130850406Y-92492216D02*
X131416091Y-91926531D01*
X131281404Y-91953468D01*
X131173654Y-91953468D01*
X131092842Y-91926531D01*
X131550778Y-93192589D02*
X131227529Y-92869340D01*
X131389154Y-93030964D02*
X131954839Y-92465279D01*
X131820152Y-92492216D01*
X131712402Y-92492216D01*
X131631590Y-92465279D01*
X132959407Y-90983722D02*
X132932470Y-90902910D01*
X132851658Y-90822097D01*
X132743908Y-90768223D01*
X132636158Y-90768223D01*
X132555346Y-90795160D01*
X132420659Y-90875972D01*
X132339847Y-90956784D01*
X132259035Y-91091471D01*
X132232097Y-91172284D01*
X132232097Y-91280033D01*
X132285972Y-91387783D01*
X132339847Y-91441658D01*
X132447597Y-91495532D01*
X132501471Y-91495532D01*
X132690033Y-91306971D01*
X132582284Y-91199221D01*
X132690033Y-91791844D02*
X133255719Y-91226158D01*
X133471218Y-91441658D01*
X133498155Y-91522470D01*
X133498155Y-91576345D01*
X133471218Y-91657157D01*
X133390406Y-91737969D01*
X133309593Y-91764906D01*
X133255719Y-91764906D01*
X133174906Y-91737969D01*
X132959407Y-91522470D01*
X133552030Y-92653841D02*
X133228781Y-92330592D01*
X133390406Y-92492216D02*
X133956091Y-91926531D01*
X133821404Y-91953468D01*
X133713654Y-91953468D01*
X133632842Y-91926531D01*
X134279340Y-92357529D02*
X134333215Y-92357529D01*
X134414027Y-92384467D01*
X134548714Y-92519154D01*
X134575651Y-92599966D01*
X134575651Y-92653841D01*
X134548714Y-92734653D01*
X134494839Y-92788528D01*
X134387089Y-92842402D01*
X133740592Y-92842402D01*
X134090778Y-93192589D01*
X135499407Y-90837722D02*
X135472470Y-90756910D01*
X135391658Y-90676097D01*
X135283908Y-90622223D01*
X135176158Y-90622223D01*
X135095346Y-90649160D01*
X134960659Y-90729972D01*
X134879847Y-90810784D01*
X134799035Y-90945471D01*
X134772097Y-91026284D01*
X134772097Y-91134033D01*
X134825972Y-91241783D01*
X134879847Y-91295658D01*
X134987597Y-91349532D01*
X135041471Y-91349532D01*
X135230033Y-91160971D01*
X135122284Y-91053221D01*
X135230033Y-91645844D02*
X135795719Y-91080158D01*
X136011218Y-91295658D01*
X136038155Y-91376470D01*
X136038155Y-91430345D01*
X136011218Y-91511157D01*
X135930406Y-91591969D01*
X135849593Y-91618906D01*
X135795719Y-91618906D01*
X135714906Y-91591969D01*
X135499407Y-91376470D01*
X136092030Y-92507841D02*
X135768781Y-92184592D01*
X135930406Y-92346216D02*
X136496091Y-91780531D01*
X136361404Y-91807468D01*
X136253654Y-91807468D01*
X136172842Y-91780531D01*
X136846277Y-92130717D02*
X137196463Y-92480903D01*
X136792402Y-92507841D01*
X136873215Y-92588653D01*
X136900152Y-92669465D01*
X136900152Y-92723340D01*
X136873215Y-92804152D01*
X136738528Y-92938839D01*
X136657715Y-92965776D01*
X136603841Y-92965776D01*
X136523028Y-92938839D01*
X136361404Y-92777215D01*
X136334467Y-92696402D01*
X136334467Y-92642528D01*
X140579407Y-90883722D02*
X140552470Y-90802910D01*
X140471658Y-90722097D01*
X140363908Y-90668223D01*
X140256158Y-90668223D01*
X140175346Y-90695160D01*
X140040659Y-90775972D01*
X139959847Y-90856784D01*
X139879035Y-90991471D01*
X139852097Y-91072284D01*
X139852097Y-91180033D01*
X139905972Y-91287783D01*
X139959847Y-91341658D01*
X140067597Y-91395532D01*
X140121471Y-91395532D01*
X140310033Y-91206971D01*
X140202284Y-91099221D01*
X140310033Y-91691844D02*
X140875719Y-91126158D01*
X141091218Y-91341658D01*
X141118155Y-91422470D01*
X141118155Y-91476345D01*
X141091218Y-91557157D01*
X141010406Y-91637969D01*
X140929593Y-91664906D01*
X140875719Y-91664906D01*
X140794906Y-91637969D01*
X140579407Y-91422470D01*
X141172030Y-92553841D02*
X140848781Y-92230592D01*
X141010406Y-92392216D02*
X141576091Y-91826531D01*
X141441404Y-91853468D01*
X141333654Y-91853468D01*
X141252842Y-91826531D01*
X142034027Y-92661590D02*
X141656903Y-93038714D01*
X142114839Y-92311404D02*
X141576091Y-92580778D01*
X141926277Y-92930964D01*
X143119407Y-90837722D02*
X143092470Y-90756910D01*
X143011658Y-90676097D01*
X142903908Y-90622223D01*
X142796158Y-90622223D01*
X142715346Y-90649160D01*
X142580659Y-90729972D01*
X142499847Y-90810784D01*
X142419035Y-90945471D01*
X142392097Y-91026284D01*
X142392097Y-91134033D01*
X142445972Y-91241783D01*
X142499847Y-91295658D01*
X142607597Y-91349532D01*
X142661471Y-91349532D01*
X142850033Y-91160971D01*
X142742284Y-91053221D01*
X142850033Y-91645844D02*
X143415719Y-91080158D01*
X143631218Y-91295658D01*
X143658155Y-91376470D01*
X143658155Y-91430345D01*
X143631218Y-91511157D01*
X143550406Y-91591969D01*
X143469593Y-91618906D01*
X143415719Y-91618906D01*
X143334906Y-91591969D01*
X143119407Y-91376470D01*
X143712030Y-92507841D02*
X143388781Y-92184592D01*
X143550406Y-92346216D02*
X144116091Y-91780531D01*
X143981404Y-91807468D01*
X143873654Y-91807468D01*
X143792842Y-91780531D01*
X144789526Y-92453966D02*
X144520152Y-92184592D01*
X144223841Y-92427028D01*
X144277715Y-92427028D01*
X144358528Y-92453966D01*
X144493215Y-92588653D01*
X144520152Y-92669465D01*
X144520152Y-92723340D01*
X144493215Y-92804152D01*
X144358528Y-92938839D01*
X144277715Y-92965776D01*
X144223841Y-92965776D01*
X144143028Y-92938839D01*
X144008341Y-92804152D01*
X143981404Y-92723340D01*
X143981404Y-92669465D01*
X143119407Y-64729722D02*
X143092470Y-64648910D01*
X143011658Y-64568097D01*
X142903908Y-64514223D01*
X142796158Y-64514223D01*
X142715346Y-64541160D01*
X142580659Y-64621972D01*
X142499847Y-64702784D01*
X142419035Y-64837471D01*
X142392097Y-64918284D01*
X142392097Y-65026033D01*
X142445972Y-65133783D01*
X142499847Y-65187658D01*
X142607597Y-65241532D01*
X142661471Y-65241532D01*
X142850033Y-65052971D01*
X142742284Y-64945221D01*
X142850033Y-65537844D02*
X143415719Y-64972158D01*
X143631218Y-65187658D01*
X143658155Y-65268470D01*
X143658155Y-65322345D01*
X143631218Y-65403157D01*
X143550406Y-65483969D01*
X143469593Y-65510906D01*
X143415719Y-65510906D01*
X143334906Y-65483969D01*
X143119407Y-65268470D01*
X143712030Y-66399841D02*
X143388781Y-66076592D01*
X143550406Y-66238216D02*
X144116091Y-65672531D01*
X143981404Y-65699468D01*
X143873654Y-65699468D01*
X143792842Y-65672531D01*
X144762589Y-66319028D02*
X144654839Y-66211279D01*
X144574027Y-66184341D01*
X144520152Y-66184341D01*
X144385465Y-66211279D01*
X144250778Y-66292091D01*
X144035279Y-66507590D01*
X144008341Y-66588402D01*
X144008341Y-66642277D01*
X144035279Y-66723089D01*
X144143028Y-66830839D01*
X144223841Y-66857776D01*
X144277715Y-66857776D01*
X144358528Y-66830839D01*
X144493215Y-66696152D01*
X144520152Y-66615340D01*
X144520152Y-66561465D01*
X144493215Y-66480653D01*
X144385465Y-66372903D01*
X144304653Y-66345966D01*
X144250778Y-66345966D01*
X144169966Y-66372903D01*
X140579407Y-64729722D02*
X140552470Y-64648910D01*
X140471658Y-64568097D01*
X140363908Y-64514223D01*
X140256158Y-64514223D01*
X140175346Y-64541160D01*
X140040659Y-64621972D01*
X139959847Y-64702784D01*
X139879035Y-64837471D01*
X139852097Y-64918284D01*
X139852097Y-65026033D01*
X139905972Y-65133783D01*
X139959847Y-65187658D01*
X140067597Y-65241532D01*
X140121471Y-65241532D01*
X140310033Y-65052971D01*
X140202284Y-64945221D01*
X140310033Y-65537844D02*
X140875719Y-64972158D01*
X141091218Y-65187658D01*
X141118155Y-65268470D01*
X141118155Y-65322345D01*
X141091218Y-65403157D01*
X141010406Y-65483969D01*
X140929593Y-65510906D01*
X140875719Y-65510906D01*
X140794906Y-65483969D01*
X140579407Y-65268470D01*
X141172030Y-66399841D02*
X140848781Y-66076592D01*
X141010406Y-66238216D02*
X141576091Y-65672531D01*
X141441404Y-65699468D01*
X141333654Y-65699468D01*
X141252842Y-65672531D01*
X141926277Y-66022717D02*
X142303401Y-66399841D01*
X141495279Y-66723089D01*
X135499407Y-64729722D02*
X135472470Y-64648910D01*
X135391658Y-64568097D01*
X135283908Y-64514223D01*
X135176158Y-64514223D01*
X135095346Y-64541160D01*
X134960659Y-64621972D01*
X134879847Y-64702784D01*
X134799035Y-64837471D01*
X134772097Y-64918284D01*
X134772097Y-65026033D01*
X134825972Y-65133783D01*
X134879847Y-65187658D01*
X134987597Y-65241532D01*
X135041471Y-65241532D01*
X135230033Y-65052971D01*
X135122284Y-64945221D01*
X135230033Y-65537844D02*
X135795719Y-64972158D01*
X136011218Y-65187658D01*
X136038155Y-65268470D01*
X136038155Y-65322345D01*
X136011218Y-65403157D01*
X135930406Y-65483969D01*
X135849593Y-65510906D01*
X135795719Y-65510906D01*
X135714906Y-65483969D01*
X135499407Y-65268470D01*
X136092030Y-66399841D02*
X135768781Y-66076592D01*
X135930406Y-66238216D02*
X136496091Y-65672531D01*
X136361404Y-65699468D01*
X136253654Y-65699468D01*
X136172842Y-65672531D01*
X136738528Y-66399841D02*
X136711590Y-66319028D01*
X136711590Y-66265154D01*
X136738528Y-66184341D01*
X136765465Y-66157404D01*
X136846277Y-66130467D01*
X136900152Y-66130467D01*
X136980964Y-66157404D01*
X137088714Y-66265154D01*
X137115651Y-66345966D01*
X137115651Y-66399841D01*
X137088714Y-66480653D01*
X137061776Y-66507590D01*
X136980964Y-66534528D01*
X136927089Y-66534528D01*
X136846277Y-66507590D01*
X136738528Y-66399841D01*
X136657715Y-66372903D01*
X136603841Y-66372903D01*
X136523028Y-66399841D01*
X136415279Y-66507590D01*
X136388341Y-66588402D01*
X136388341Y-66642277D01*
X136415279Y-66723089D01*
X136523028Y-66830839D01*
X136603841Y-66857776D01*
X136657715Y-66857776D01*
X136738528Y-66830839D01*
X136846277Y-66723089D01*
X136873215Y-66642277D01*
X136873215Y-66588402D01*
X136846277Y-66507590D01*
X132959407Y-64729722D02*
X132932470Y-64648910D01*
X132851658Y-64568097D01*
X132743908Y-64514223D01*
X132636158Y-64514223D01*
X132555346Y-64541160D01*
X132420659Y-64621972D01*
X132339847Y-64702784D01*
X132259035Y-64837471D01*
X132232097Y-64918284D01*
X132232097Y-65026033D01*
X132285972Y-65133783D01*
X132339847Y-65187658D01*
X132447597Y-65241532D01*
X132501471Y-65241532D01*
X132690033Y-65052971D01*
X132582284Y-64945221D01*
X132690033Y-65537844D02*
X133255719Y-64972158D01*
X133471218Y-65187658D01*
X133498155Y-65268470D01*
X133498155Y-65322345D01*
X133471218Y-65403157D01*
X133390406Y-65483969D01*
X133309593Y-65510906D01*
X133255719Y-65510906D01*
X133174906Y-65483969D01*
X132959407Y-65268470D01*
X133552030Y-66399841D02*
X133228781Y-66076592D01*
X133390406Y-66238216D02*
X133956091Y-65672531D01*
X133821404Y-65699468D01*
X133713654Y-65699468D01*
X133632842Y-65672531D01*
X133821404Y-66669215D02*
X133929154Y-66776964D01*
X134009966Y-66803902D01*
X134063841Y-66803902D01*
X134198528Y-66776964D01*
X134333215Y-66696152D01*
X134548714Y-66480653D01*
X134575651Y-66399841D01*
X134575651Y-66345966D01*
X134548714Y-66265154D01*
X134440964Y-66157404D01*
X134360152Y-66130467D01*
X134306277Y-66130467D01*
X134225465Y-66157404D01*
X134090778Y-66292091D01*
X134063841Y-66372903D01*
X134063841Y-66426778D01*
X134090778Y-66507590D01*
X134198528Y-66615340D01*
X134279340Y-66642277D01*
X134333215Y-66642277D01*
X134414027Y-66615340D01*
X130419407Y-64729722D02*
X130392470Y-64648910D01*
X130311658Y-64568097D01*
X130203908Y-64514223D01*
X130096158Y-64514223D01*
X130015346Y-64541160D01*
X129880659Y-64621972D01*
X129799847Y-64702784D01*
X129719035Y-64837471D01*
X129692097Y-64918284D01*
X129692097Y-65026033D01*
X129745972Y-65133783D01*
X129799847Y-65187658D01*
X129907597Y-65241532D01*
X129961471Y-65241532D01*
X130150033Y-65052971D01*
X130042284Y-64945221D01*
X130150033Y-65537844D02*
X130715719Y-64972158D01*
X130931218Y-65187658D01*
X130958155Y-65268470D01*
X130958155Y-65322345D01*
X130931218Y-65403157D01*
X130850406Y-65483969D01*
X130769593Y-65510906D01*
X130715719Y-65510906D01*
X130634906Y-65483969D01*
X130419407Y-65268470D01*
X131200592Y-65564781D02*
X131254467Y-65564781D01*
X131335279Y-65591719D01*
X131469966Y-65726406D01*
X131496903Y-65807218D01*
X131496903Y-65861093D01*
X131469966Y-65941905D01*
X131416091Y-65995780D01*
X131308341Y-66049654D01*
X130661844Y-66049654D01*
X131012030Y-66399841D01*
X131927902Y-66184341D02*
X131981776Y-66238216D01*
X132008714Y-66319028D01*
X132008714Y-66372903D01*
X131981776Y-66453715D01*
X131900964Y-66588402D01*
X131766277Y-66723089D01*
X131631590Y-66803902D01*
X131550778Y-66830839D01*
X131496903Y-66830839D01*
X131416091Y-66803902D01*
X131362216Y-66750027D01*
X131335279Y-66669215D01*
X131335279Y-66615340D01*
X131362216Y-66534528D01*
X131443028Y-66399841D01*
X131577715Y-66265154D01*
X131712402Y-66184341D01*
X131793215Y-66157404D01*
X131847089Y-66157404D01*
X131927902Y-66184341D01*
X127889407Y-64729722D02*
X127862470Y-64648910D01*
X127781658Y-64568097D01*
X127673908Y-64514223D01*
X127566158Y-64514223D01*
X127485346Y-64541160D01*
X127350659Y-64621972D01*
X127269847Y-64702784D01*
X127189035Y-64837471D01*
X127162097Y-64918284D01*
X127162097Y-65026033D01*
X127215972Y-65133783D01*
X127269847Y-65187658D01*
X127377597Y-65241532D01*
X127431471Y-65241532D01*
X127620033Y-65052971D01*
X127512284Y-64945221D01*
X127620033Y-65537844D02*
X128185719Y-64972158D01*
X128401218Y-65187658D01*
X128428155Y-65268470D01*
X128428155Y-65322345D01*
X128401218Y-65403157D01*
X128320406Y-65483969D01*
X128239593Y-65510906D01*
X128185719Y-65510906D01*
X128104906Y-65483969D01*
X127889407Y-65268470D01*
X128670592Y-65564781D02*
X128724467Y-65564781D01*
X128805279Y-65591719D01*
X128939966Y-65726406D01*
X128966903Y-65807218D01*
X128966903Y-65861093D01*
X128939966Y-65941905D01*
X128886091Y-65995780D01*
X128778341Y-66049654D01*
X128131844Y-66049654D01*
X128482030Y-66399841D01*
X129020778Y-66938589D02*
X128697529Y-66615340D01*
X128859154Y-66776964D02*
X129424839Y-66211279D01*
X129290152Y-66238216D01*
X129182402Y-66238216D01*
X129101590Y-66211279D01*
X122799407Y-64729722D02*
X122772470Y-64648910D01*
X122691658Y-64568097D01*
X122583908Y-64514223D01*
X122476158Y-64514223D01*
X122395346Y-64541160D01*
X122260659Y-64621972D01*
X122179847Y-64702784D01*
X122099035Y-64837471D01*
X122072097Y-64918284D01*
X122072097Y-65026033D01*
X122125972Y-65133783D01*
X122179847Y-65187658D01*
X122287597Y-65241532D01*
X122341471Y-65241532D01*
X122530033Y-65052971D01*
X122422284Y-64945221D01*
X122530033Y-65537844D02*
X123095719Y-64972158D01*
X123311218Y-65187658D01*
X123338155Y-65268470D01*
X123338155Y-65322345D01*
X123311218Y-65403157D01*
X123230406Y-65483969D01*
X123149593Y-65510906D01*
X123095719Y-65510906D01*
X123014906Y-65483969D01*
X122799407Y-65268470D01*
X123580592Y-65564781D02*
X123634467Y-65564781D01*
X123715279Y-65591719D01*
X123849966Y-65726406D01*
X123876903Y-65807218D01*
X123876903Y-65861093D01*
X123849966Y-65941905D01*
X123796091Y-65995780D01*
X123688341Y-66049654D01*
X123041844Y-66049654D01*
X123392030Y-66399841D01*
X124119340Y-66103529D02*
X124173215Y-66103529D01*
X124254027Y-66130467D01*
X124388714Y-66265154D01*
X124415651Y-66345966D01*
X124415651Y-66399841D01*
X124388714Y-66480653D01*
X124334839Y-66534528D01*
X124227089Y-66588402D01*
X123580592Y-66588402D01*
X123930778Y-66938589D01*
X119976564Y-65578375D02*
X120057377Y-65120439D01*
X119653316Y-65255126D02*
X120219001Y-64689441D01*
X120434500Y-64904940D01*
X120461438Y-64985752D01*
X120461438Y-65039627D01*
X120434500Y-65120439D01*
X120353688Y-65201251D01*
X120272876Y-65228189D01*
X120219001Y-65228189D01*
X120138189Y-65201251D01*
X119922690Y-64985752D01*
X120784687Y-65255126D02*
X120326751Y-65713062D01*
X120299813Y-65793874D01*
X120299813Y-65847749D01*
X120326751Y-65928561D01*
X120434500Y-66036311D01*
X120515312Y-66063248D01*
X120569187Y-66063248D01*
X120650000Y-66036311D01*
X121107935Y-65578375D01*
X120811624Y-66413435D02*
X121377309Y-65847749D01*
X121134873Y-66736683D01*
X121700558Y-66170998D01*
X117719407Y-64729722D02*
X117692470Y-64648910D01*
X117611658Y-64568097D01*
X117503908Y-64514223D01*
X117396158Y-64514223D01*
X117315346Y-64541160D01*
X117180659Y-64621972D01*
X117099847Y-64702784D01*
X117019035Y-64837471D01*
X116992097Y-64918284D01*
X116992097Y-65026033D01*
X117045972Y-65133783D01*
X117099847Y-65187658D01*
X117207597Y-65241532D01*
X117261471Y-65241532D01*
X117450033Y-65052971D01*
X117342284Y-64945221D01*
X117450033Y-65537844D02*
X118015719Y-64972158D01*
X118231218Y-65187658D01*
X118258155Y-65268470D01*
X118258155Y-65322345D01*
X118231218Y-65403157D01*
X118150406Y-65483969D01*
X118069593Y-65510906D01*
X118015719Y-65510906D01*
X117934906Y-65483969D01*
X117719407Y-65268470D01*
X118500592Y-65564781D02*
X118554467Y-65564781D01*
X118635279Y-65591719D01*
X118769966Y-65726406D01*
X118796903Y-65807218D01*
X118796903Y-65861093D01*
X118769966Y-65941905D01*
X118716091Y-65995780D01*
X118608341Y-66049654D01*
X117961844Y-66049654D01*
X118312030Y-66399841D01*
X119362589Y-66319028D02*
X119254839Y-66211279D01*
X119174027Y-66184341D01*
X119120152Y-66184341D01*
X118985465Y-66211279D01*
X118850778Y-66292091D01*
X118635279Y-66507590D01*
X118608341Y-66588402D01*
X118608341Y-66642277D01*
X118635279Y-66723089D01*
X118743028Y-66830839D01*
X118823841Y-66857776D01*
X118877715Y-66857776D01*
X118958528Y-66830839D01*
X119093215Y-66696152D01*
X119120152Y-66615340D01*
X119120152Y-66561465D01*
X119093215Y-66480653D01*
X118985465Y-66372903D01*
X118904653Y-66345966D01*
X118850778Y-66345966D01*
X118769966Y-66372903D01*
X115189407Y-64729722D02*
X115162470Y-64648910D01*
X115081658Y-64568097D01*
X114973908Y-64514223D01*
X114866158Y-64514223D01*
X114785346Y-64541160D01*
X114650659Y-64621972D01*
X114569847Y-64702784D01*
X114489035Y-64837471D01*
X114462097Y-64918284D01*
X114462097Y-65026033D01*
X114515972Y-65133783D01*
X114569847Y-65187658D01*
X114677597Y-65241532D01*
X114731471Y-65241532D01*
X114920033Y-65052971D01*
X114812284Y-64945221D01*
X114920033Y-65537844D02*
X115485719Y-64972158D01*
X115701218Y-65187658D01*
X115728155Y-65268470D01*
X115728155Y-65322345D01*
X115701218Y-65403157D01*
X115620406Y-65483969D01*
X115539593Y-65510906D01*
X115485719Y-65510906D01*
X115404906Y-65483969D01*
X115189407Y-65268470D01*
X115970592Y-65564781D02*
X116024467Y-65564781D01*
X116105279Y-65591719D01*
X116239966Y-65726406D01*
X116266903Y-65807218D01*
X116266903Y-65861093D01*
X116239966Y-65941905D01*
X116186091Y-65995780D01*
X116078341Y-66049654D01*
X115431844Y-66049654D01*
X115782030Y-66399841D01*
X116536277Y-66022717D02*
X116913401Y-66399841D01*
X116105279Y-66723089D01*
X109845407Y-64729722D02*
X109818470Y-64648910D01*
X109737658Y-64568097D01*
X109629908Y-64514223D01*
X109522158Y-64514223D01*
X109441346Y-64541160D01*
X109306659Y-64621972D01*
X109225847Y-64702784D01*
X109145035Y-64837471D01*
X109118097Y-64918284D01*
X109118097Y-65026033D01*
X109171972Y-65133783D01*
X109225847Y-65187658D01*
X109333597Y-65241532D01*
X109387471Y-65241532D01*
X109576033Y-65052971D01*
X109468284Y-64945221D01*
X109576033Y-65537844D02*
X110141719Y-64972158D01*
X110357218Y-65187658D01*
X110384155Y-65268470D01*
X110384155Y-65322345D01*
X110357218Y-65403157D01*
X110276406Y-65483969D01*
X110195593Y-65510906D01*
X110141719Y-65510906D01*
X110060906Y-65483969D01*
X109845407Y-65268470D01*
X110626592Y-65564781D02*
X110680467Y-65564781D01*
X110761279Y-65591719D01*
X110895966Y-65726406D01*
X110922903Y-65807218D01*
X110922903Y-65861093D01*
X110895966Y-65941905D01*
X110842091Y-65995780D01*
X110734341Y-66049654D01*
X110087844Y-66049654D01*
X110438030Y-66399841D01*
X111084528Y-66399841D02*
X111057590Y-66319028D01*
X111057590Y-66265154D01*
X111084528Y-66184341D01*
X111111465Y-66157404D01*
X111192277Y-66130467D01*
X111246152Y-66130467D01*
X111326964Y-66157404D01*
X111434714Y-66265154D01*
X111461651Y-66345966D01*
X111461651Y-66399841D01*
X111434714Y-66480653D01*
X111407776Y-66507590D01*
X111326964Y-66534528D01*
X111273089Y-66534528D01*
X111192277Y-66507590D01*
X111084528Y-66399841D01*
X111003715Y-66372903D01*
X110949841Y-66372903D01*
X110869028Y-66399841D01*
X110761279Y-66507590D01*
X110734341Y-66588402D01*
X110734341Y-66642277D01*
X110761279Y-66723089D01*
X110869028Y-66830839D01*
X110949841Y-66857776D01*
X111003715Y-66857776D01*
X111084528Y-66830839D01*
X111192277Y-66723089D01*
X111219215Y-66642277D01*
X111219215Y-66588402D01*
X111192277Y-66507590D01*
X104846226Y-62894788D02*
X105115600Y-63164162D01*
X104630727Y-63002537D02*
X105384974Y-62625414D01*
X105007850Y-63379661D01*
X105196412Y-63568223D02*
X105762097Y-63002537D01*
X105896784Y-63137224D01*
X105950659Y-63244974D01*
X105950659Y-63352723D01*
X105923722Y-63433536D01*
X105842910Y-63568223D01*
X105762097Y-63649035D01*
X105627410Y-63729847D01*
X105546598Y-63756784D01*
X105438849Y-63756784D01*
X105331099Y-63702910D01*
X105196412Y-63568223D01*
X106139221Y-64403282D02*
X106085346Y-64403282D01*
X105977597Y-64349407D01*
X105923722Y-64295532D01*
X105869847Y-64187783D01*
X105869847Y-64080033D01*
X105896784Y-63999221D01*
X105977597Y-63864534D01*
X106058409Y-63783722D01*
X106193096Y-63702910D01*
X106273908Y-63675972D01*
X106381658Y-63675972D01*
X106489407Y-63729847D01*
X106543282Y-63783722D01*
X106597157Y-63891471D01*
X106597157Y-63945346D01*
X106139221Y-64618781D02*
X106570219Y-65049780D01*
X107243654Y-64484094D02*
X106866531Y-65238341D01*
X107620778Y-64861218D01*
X107566903Y-65938714D02*
X107647715Y-65480778D01*
X107243654Y-65615465D02*
X107809340Y-65049780D01*
X108024839Y-65265279D01*
X108051776Y-65346091D01*
X108051776Y-65399966D01*
X108024839Y-65480778D01*
X107944027Y-65561590D01*
X107863215Y-65588528D01*
X107809340Y-65588528D01*
X107728528Y-65561590D01*
X107513028Y-65346091D01*
X108105651Y-65884839D02*
X108294213Y-66073401D01*
X108078714Y-66450524D02*
X107809340Y-66181150D01*
X108375025Y-65615465D01*
X108644399Y-65884839D01*
X108806024Y-66585211D02*
X108617462Y-66396650D01*
X108321150Y-66692961D02*
X108886836Y-66127276D01*
X109156210Y-66396650D01*
X105089407Y-64829847D02*
X105439593Y-65180033D01*
X105035532Y-65206971D01*
X105116345Y-65287783D01*
X105143282Y-65368595D01*
X105143282Y-65422470D01*
X105116345Y-65503282D01*
X104981658Y-65637969D01*
X104900845Y-65664906D01*
X104846971Y-65664906D01*
X104766158Y-65637969D01*
X104604534Y-65476345D01*
X104577597Y-65395532D01*
X104577597Y-65341658D01*
X105601218Y-65341658D02*
X105224094Y-66095905D01*
X105978341Y-65718781D01*
X106113028Y-65853468D02*
X106463215Y-66203654D01*
X106059154Y-66230592D01*
X106139966Y-66311404D01*
X106166903Y-66392216D01*
X106166903Y-66446091D01*
X106139966Y-66526903D01*
X106005279Y-66661590D01*
X105924467Y-66688528D01*
X105870592Y-66688528D01*
X105789780Y-66661590D01*
X105628155Y-66499966D01*
X105601218Y-66419154D01*
X105601218Y-66365279D01*
X101021691Y-63262131D02*
X101371877Y-63612317D01*
X100967816Y-63639255D01*
X101048629Y-63720067D01*
X101075566Y-63800879D01*
X101075566Y-63854754D01*
X101048629Y-63935566D01*
X100913942Y-64070253D01*
X100833129Y-64097190D01*
X100779255Y-64097190D01*
X100698442Y-64070253D01*
X100536818Y-63908629D01*
X100509881Y-63827816D01*
X100509881Y-63773942D01*
X101533502Y-63773942D02*
X101156378Y-64528189D01*
X101910625Y-64151065D01*
X102045312Y-64285752D02*
X102395499Y-64635938D01*
X101991438Y-64662876D01*
X102072250Y-64743688D01*
X102099187Y-64824500D01*
X102099187Y-64878375D01*
X102072250Y-64959187D01*
X101937563Y-65093874D01*
X101856751Y-65120812D01*
X101802876Y-65120812D01*
X101722064Y-65093874D01*
X101560439Y-64932250D01*
X101533502Y-64851438D01*
X101533502Y-64797563D01*
X101883688Y-65363248D02*
X102314687Y-65794247D01*
X102799560Y-65578748D02*
X102988122Y-65767309D01*
X102772622Y-66144433D02*
X102503248Y-65875059D01*
X103068934Y-65309374D01*
X103338308Y-65578748D01*
X103015059Y-66386870D02*
X103580744Y-65821184D01*
X103338308Y-66710118D01*
X103903993Y-66144433D01*
X97130033Y-64260473D02*
X96752910Y-65014720D01*
X97507157Y-64637597D01*
X97130033Y-65337969D02*
X97183908Y-65445719D01*
X97318595Y-65580406D01*
X97399407Y-65607343D01*
X97453282Y-65607343D01*
X97534094Y-65580406D01*
X97587969Y-65526531D01*
X97614906Y-65445719D01*
X97614906Y-65391844D01*
X97587969Y-65311032D01*
X97507157Y-65176345D01*
X97480219Y-65095532D01*
X97480219Y-65041658D01*
X97507157Y-64960845D01*
X97561032Y-64906971D01*
X97641844Y-64880033D01*
X97695719Y-64880033D01*
X97776531Y-64906971D01*
X97911218Y-65041658D01*
X97965093Y-65149407D01*
X98045905Y-65768967D02*
X97776531Y-66038341D01*
X98153654Y-65284094D02*
X98045905Y-65768967D01*
X98530778Y-65661218D01*
X98153654Y-66361590D02*
X98207529Y-66469340D01*
X98342216Y-66604027D01*
X98423028Y-66630964D01*
X98476903Y-66630964D01*
X98557715Y-66604027D01*
X98611590Y-66550152D01*
X98638528Y-66469340D01*
X98638528Y-66415465D01*
X98611590Y-66334653D01*
X98530778Y-66199966D01*
X98503841Y-66119154D01*
X98503841Y-66065279D01*
X98530778Y-65984467D01*
X98584653Y-65930592D01*
X98665465Y-65903654D01*
X98719340Y-65903654D01*
X98800152Y-65930592D01*
X98934839Y-66065279D01*
X98988714Y-66173028D01*
X94452690Y-64093129D02*
X94075566Y-64847377D01*
X94829813Y-64470253D01*
X94937563Y-65116751D02*
X94991438Y-65224500D01*
X94991438Y-65278375D01*
X94964500Y-65359187D01*
X94883688Y-65439999D01*
X94802876Y-65466937D01*
X94749001Y-65466937D01*
X94668189Y-65440000D01*
X94452690Y-65224500D01*
X95018375Y-64658815D01*
X95206937Y-64847377D01*
X95233874Y-64928189D01*
X95233874Y-64982064D01*
X95206937Y-65062876D01*
X95153062Y-65116751D01*
X95072250Y-65143688D01*
X95018375Y-65143688D01*
X94937563Y-65116751D01*
X94749001Y-64928189D01*
X95584061Y-65224500D02*
X95126125Y-65682436D01*
X95099187Y-65763248D01*
X95099187Y-65817123D01*
X95126125Y-65897935D01*
X95233874Y-66005685D01*
X95314687Y-66032622D01*
X95368561Y-66032622D01*
X95449374Y-66005685D01*
X95907309Y-65547749D01*
X95610998Y-66328934D02*
X95664873Y-66436683D01*
X95799560Y-66571370D01*
X95880372Y-66598308D01*
X95934247Y-66598308D01*
X96015059Y-66571370D01*
X96068934Y-66517496D01*
X96095871Y-66436683D01*
X96095871Y-66382809D01*
X96068934Y-66301996D01*
X95988122Y-66167309D01*
X95961184Y-66086497D01*
X95961184Y-66032622D01*
X95988122Y-65951810D01*
X96041996Y-65897935D01*
X96122809Y-65870998D01*
X96176683Y-65870998D01*
X96257496Y-65897935D01*
X96392183Y-66032622D01*
X96446057Y-66140372D01*
X100181844Y-90826158D02*
X100154906Y-90745346D01*
X100074094Y-90664534D01*
X99966345Y-90610659D01*
X99858595Y-90610659D01*
X99777783Y-90637597D01*
X99643096Y-90718409D01*
X99562284Y-90799221D01*
X99481471Y-90933908D01*
X99454534Y-91014720D01*
X99454534Y-91122470D01*
X99508409Y-91230219D01*
X99562284Y-91284094D01*
X99670033Y-91337969D01*
X99723908Y-91337969D01*
X99912470Y-91149407D01*
X99804720Y-91041658D01*
X99912470Y-91634280D02*
X100478155Y-91068595D01*
X100235719Y-91957529D01*
X100801404Y-91391844D01*
X100505093Y-92226903D02*
X101070778Y-91661218D01*
X101205465Y-91795905D01*
X101259340Y-91903654D01*
X101259340Y-92011404D01*
X101232402Y-92092216D01*
X101151590Y-92226903D01*
X101070778Y-92307715D01*
X100936091Y-92388528D01*
X100855279Y-92415465D01*
X100747529Y-92415465D01*
X100639780Y-92361590D01*
X100505093Y-92226903D01*
X112881844Y-90826158D02*
X112854906Y-90745346D01*
X112774094Y-90664534D01*
X112666345Y-90610659D01*
X112558595Y-90610659D01*
X112477783Y-90637597D01*
X112343096Y-90718409D01*
X112262284Y-90799221D01*
X112181471Y-90933908D01*
X112154534Y-91014720D01*
X112154534Y-91122470D01*
X112208409Y-91230219D01*
X112262284Y-91284094D01*
X112370033Y-91337969D01*
X112423908Y-91337969D01*
X112612470Y-91149407D01*
X112504720Y-91041658D01*
X112612470Y-91634280D02*
X113178155Y-91068595D01*
X112935719Y-91957529D01*
X113501404Y-91391844D01*
X113205093Y-92226903D02*
X113770778Y-91661218D01*
X113905465Y-91795905D01*
X113959340Y-91903654D01*
X113959340Y-92011404D01*
X113932402Y-92092216D01*
X113851590Y-92226903D01*
X113770778Y-92307715D01*
X113636091Y-92388528D01*
X113555279Y-92415465D01*
X113447529Y-92415465D01*
X113339780Y-92361590D01*
X113205093Y-92226903D01*
X125581844Y-90826158D02*
X125554906Y-90745346D01*
X125474094Y-90664534D01*
X125366345Y-90610659D01*
X125258595Y-90610659D01*
X125177783Y-90637597D01*
X125043096Y-90718409D01*
X124962284Y-90799221D01*
X124881471Y-90933908D01*
X124854534Y-91014720D01*
X124854534Y-91122470D01*
X124908409Y-91230219D01*
X124962284Y-91284094D01*
X125070033Y-91337969D01*
X125123908Y-91337969D01*
X125312470Y-91149407D01*
X125204720Y-91041658D01*
X125312470Y-91634280D02*
X125878155Y-91068595D01*
X125635719Y-91957529D01*
X126201404Y-91391844D01*
X125905093Y-92226903D02*
X126470778Y-91661218D01*
X126605465Y-91795905D01*
X126659340Y-91903654D01*
X126659340Y-92011404D01*
X126632402Y-92092216D01*
X126551590Y-92226903D01*
X126470778Y-92307715D01*
X126336091Y-92388528D01*
X126255279Y-92415465D01*
X126147529Y-92415465D01*
X126039780Y-92361590D01*
X125905093Y-92226903D01*
X138281844Y-90826158D02*
X138254906Y-90745346D01*
X138174094Y-90664534D01*
X138066345Y-90610659D01*
X137958595Y-90610659D01*
X137877783Y-90637597D01*
X137743096Y-90718409D01*
X137662284Y-90799221D01*
X137581471Y-90933908D01*
X137554534Y-91014720D01*
X137554534Y-91122470D01*
X137608409Y-91230219D01*
X137662284Y-91284094D01*
X137770033Y-91337969D01*
X137823908Y-91337969D01*
X138012470Y-91149407D01*
X137904720Y-91041658D01*
X138012470Y-91634280D02*
X138578155Y-91068595D01*
X138335719Y-91957529D01*
X138901404Y-91391844D01*
X138605093Y-92226903D02*
X139170778Y-91661218D01*
X139305465Y-91795905D01*
X139359340Y-91903654D01*
X139359340Y-92011404D01*
X139332402Y-92092216D01*
X139251590Y-92226903D01*
X139170778Y-92307715D01*
X139036091Y-92388528D01*
X138955279Y-92415465D01*
X138847529Y-92415465D01*
X138739780Y-92361590D01*
X138605093Y-92226903D01*
X138281844Y-65226158D02*
X138254906Y-65145346D01*
X138174094Y-65064534D01*
X138066345Y-65010659D01*
X137958595Y-65010659D01*
X137877783Y-65037597D01*
X137743096Y-65118409D01*
X137662284Y-65199221D01*
X137581471Y-65333908D01*
X137554534Y-65414720D01*
X137554534Y-65522470D01*
X137608409Y-65630219D01*
X137662284Y-65684094D01*
X137770033Y-65737969D01*
X137823908Y-65737969D01*
X138012470Y-65549407D01*
X137904720Y-65441658D01*
X138012470Y-66034280D02*
X138578155Y-65468595D01*
X138335719Y-66357529D01*
X138901404Y-65791844D01*
X138605093Y-66626903D02*
X139170778Y-66061218D01*
X139305465Y-66195905D01*
X139359340Y-66303654D01*
X139359340Y-66411404D01*
X139332402Y-66492216D01*
X139251590Y-66626903D01*
X139170778Y-66707715D01*
X139036091Y-66788528D01*
X138955279Y-66815465D01*
X138847529Y-66815465D01*
X138739780Y-66761590D01*
X138605093Y-66626903D01*
X125581844Y-65226158D02*
X125554906Y-65145346D01*
X125474094Y-65064534D01*
X125366345Y-65010659D01*
X125258595Y-65010659D01*
X125177783Y-65037597D01*
X125043096Y-65118409D01*
X124962284Y-65199221D01*
X124881471Y-65333908D01*
X124854534Y-65414720D01*
X124854534Y-65522470D01*
X124908409Y-65630219D01*
X124962284Y-65684094D01*
X125070033Y-65737969D01*
X125123908Y-65737969D01*
X125312470Y-65549407D01*
X125204720Y-65441658D01*
X125312470Y-66034280D02*
X125878155Y-65468595D01*
X125635719Y-66357529D01*
X126201404Y-65791844D01*
X125905093Y-66626903D02*
X126470778Y-66061218D01*
X126605465Y-66195905D01*
X126659340Y-66303654D01*
X126659340Y-66411404D01*
X126632402Y-66492216D01*
X126551590Y-66626903D01*
X126470778Y-66707715D01*
X126336091Y-66788528D01*
X126255279Y-66815465D01*
X126147529Y-66815465D01*
X126039780Y-66761590D01*
X125905093Y-66626903D01*
X100181844Y-65226158D02*
X100154906Y-65145346D01*
X100074094Y-65064534D01*
X99966345Y-65010659D01*
X99858595Y-65010659D01*
X99777783Y-65037597D01*
X99643096Y-65118409D01*
X99562284Y-65199221D01*
X99481471Y-65333908D01*
X99454534Y-65414720D01*
X99454534Y-65522470D01*
X99508409Y-65630219D01*
X99562284Y-65684094D01*
X99670033Y-65737969D01*
X99723908Y-65737969D01*
X99912470Y-65549407D01*
X99804720Y-65441658D01*
X99912470Y-66034280D02*
X100478155Y-65468595D01*
X100235719Y-66357529D01*
X100801404Y-65791844D01*
X100505093Y-66626903D02*
X101070778Y-66061218D01*
X101205465Y-66195905D01*
X101259340Y-66303654D01*
X101259340Y-66411404D01*
X101232402Y-66492216D01*
X101151590Y-66626903D01*
X101070778Y-66707715D01*
X100936091Y-66788528D01*
X100855279Y-66815465D01*
X100747529Y-66815465D01*
X100639780Y-66761590D01*
X100505093Y-66626903D01*
X111939035Y-64783597D02*
X112208409Y-65052971D01*
X111723536Y-64891346D02*
X112477783Y-64514223D01*
X112100659Y-65268470D01*
X113124280Y-65214595D02*
X113097343Y-65133783D01*
X113016531Y-65052971D01*
X112908781Y-64999096D01*
X112801032Y-64999096D01*
X112720219Y-65026033D01*
X112585532Y-65106845D01*
X112504720Y-65187658D01*
X112423908Y-65322345D01*
X112396971Y-65403157D01*
X112396971Y-65510906D01*
X112450845Y-65618656D01*
X112504720Y-65672531D01*
X112612470Y-65726406D01*
X112666345Y-65726406D01*
X112854906Y-65537844D01*
X112747157Y-65430094D01*
X112854906Y-66022717D02*
X113420592Y-65457032D01*
X113178155Y-66345966D01*
X113743841Y-65780280D01*
X113447529Y-66615340D02*
X114013215Y-66049654D01*
X114147902Y-66184341D01*
X114201776Y-66292091D01*
X114201776Y-66399841D01*
X114174839Y-66480653D01*
X114094027Y-66615340D01*
X114013215Y-66696152D01*
X113878528Y-66776964D01*
X113797715Y-66803902D01*
X113689966Y-66803902D01*
X113582216Y-66750027D01*
X113447529Y-66615340D01*
X145903809Y-86249523D02*
X145941904Y-86135238D01*
X145941904Y-85944761D01*
X145903809Y-85868571D01*
X145865714Y-85830476D01*
X145789523Y-85792380D01*
X145713333Y-85792380D01*
X145637142Y-85830476D01*
X145599047Y-85868571D01*
X145560952Y-85944761D01*
X145522857Y-86097142D01*
X145484761Y-86173333D01*
X145446666Y-86211428D01*
X145370476Y-86249523D01*
X145294285Y-86249523D01*
X145218095Y-86211428D01*
X145180000Y-86173333D01*
X145141904Y-86097142D01*
X145141904Y-85906666D01*
X145180000Y-85792380D01*
X145141904Y-85525714D02*
X145941904Y-85335238D01*
X145370476Y-85182857D01*
X145941904Y-85030476D01*
X145141904Y-84840000D01*
X145865714Y-84078095D02*
X145903809Y-84116190D01*
X145941904Y-84230476D01*
X145941904Y-84306666D01*
X145903809Y-84420952D01*
X145827619Y-84497142D01*
X145751428Y-84535238D01*
X145599047Y-84573333D01*
X145484761Y-84573333D01*
X145332380Y-84535238D01*
X145256190Y-84497142D01*
X145180000Y-84420952D01*
X145141904Y-84306666D01*
X145141904Y-84230476D01*
X145180000Y-84116190D01*
X145218095Y-84078095D01*
X145941904Y-83354285D02*
X145941904Y-83735238D01*
X145141904Y-83735238D01*
X145941904Y-83087619D02*
X145141904Y-83087619D01*
X145941904Y-82630476D02*
X145484761Y-82973333D01*
X145141904Y-82630476D02*
X145599047Y-83087619D01*
X145903809Y-74835238D02*
X145941904Y-74720952D01*
X145941904Y-74530476D01*
X145903809Y-74454285D01*
X145865714Y-74416190D01*
X145789523Y-74378095D01*
X145713333Y-74378095D01*
X145637142Y-74416190D01*
X145599047Y-74454285D01*
X145560952Y-74530476D01*
X145522857Y-74682857D01*
X145484761Y-74759047D01*
X145446666Y-74797142D01*
X145370476Y-74835238D01*
X145294285Y-74835238D01*
X145218095Y-74797142D01*
X145180000Y-74759047D01*
X145141904Y-74682857D01*
X145141904Y-74492380D01*
X145180000Y-74378095D01*
X145141904Y-74111428D02*
X145941904Y-73920952D01*
X145370476Y-73768571D01*
X145941904Y-73616190D01*
X145141904Y-73425714D01*
X145941904Y-73120952D02*
X145141904Y-73120952D01*
X145141904Y-72930476D01*
X145180000Y-72816190D01*
X145256190Y-72740000D01*
X145332380Y-72701904D01*
X145484761Y-72663809D01*
X145599047Y-72663809D01*
X145751428Y-72701904D01*
X145827619Y-72740000D01*
X145903809Y-72816190D01*
X145941904Y-72930476D01*
X145941904Y-73120952D01*
X145941904Y-72320952D02*
X145141904Y-72320952D01*
X145141904Y-71787619D02*
X145141904Y-71635238D01*
X145180000Y-71559047D01*
X145256190Y-71482857D01*
X145408571Y-71444761D01*
X145675238Y-71444761D01*
X145827619Y-71482857D01*
X145903809Y-71559047D01*
X145941904Y-71635238D01*
X145941904Y-71787619D01*
X145903809Y-71863809D01*
X145827619Y-71940000D01*
X145675238Y-71978095D01*
X145408571Y-71978095D01*
X145256190Y-71940000D01*
X145180000Y-71863809D01*
X145141904Y-71787619D01*
%TO.C,U8*%
X108882380Y-101091904D02*
X109691904Y-101091904D01*
X109787142Y-101044285D01*
X109834761Y-100996666D01*
X109882380Y-100901428D01*
X109882380Y-100710952D01*
X109834761Y-100615714D01*
X109787142Y-100568095D01*
X109691904Y-100520476D01*
X108882380Y-100520476D01*
X109310952Y-99901428D02*
X109263333Y-99996666D01*
X109215714Y-100044285D01*
X109120476Y-100091904D01*
X109072857Y-100091904D01*
X108977619Y-100044285D01*
X108930000Y-99996666D01*
X108882380Y-99901428D01*
X108882380Y-99710952D01*
X108930000Y-99615714D01*
X108977619Y-99568095D01*
X109072857Y-99520476D01*
X109120476Y-99520476D01*
X109215714Y-99568095D01*
X109263333Y-99615714D01*
X109310952Y-99710952D01*
X109310952Y-99901428D01*
X109358571Y-99996666D01*
X109406190Y-100044285D01*
X109501428Y-100091904D01*
X109691904Y-100091904D01*
X109787142Y-100044285D01*
X109834761Y-99996666D01*
X109882380Y-99901428D01*
X109882380Y-99710952D01*
X109834761Y-99615714D01*
X109787142Y-99568095D01*
X109691904Y-99520476D01*
X109501428Y-99520476D01*
X109406190Y-99568095D01*
X109358571Y-99615714D01*
X109310952Y-99710952D01*
%TO.C,U7*%
X63162380Y-101091904D02*
X63971904Y-101091904D01*
X64067142Y-101044285D01*
X64114761Y-100996666D01*
X64162380Y-100901428D01*
X64162380Y-100710952D01*
X64114761Y-100615714D01*
X64067142Y-100568095D01*
X63971904Y-100520476D01*
X63162380Y-100520476D01*
X63162380Y-100139523D02*
X63162380Y-99472857D01*
X64162380Y-99901428D01*
%TO.C,U6*%
X138942380Y-118871904D02*
X139751904Y-118871904D01*
X139847142Y-118824285D01*
X139894761Y-118776666D01*
X139942380Y-118681428D01*
X139942380Y-118490952D01*
X139894761Y-118395714D01*
X139847142Y-118348095D01*
X139751904Y-118300476D01*
X138942380Y-118300476D01*
X138942380Y-117395714D02*
X138942380Y-117586190D01*
X138990000Y-117681428D01*
X139037619Y-117729047D01*
X139180476Y-117824285D01*
X139370952Y-117871904D01*
X139751904Y-117871904D01*
X139847142Y-117824285D01*
X139894761Y-117776666D01*
X139942380Y-117681428D01*
X139942380Y-117490952D01*
X139894761Y-117395714D01*
X139847142Y-117348095D01*
X139751904Y-117300476D01*
X139513809Y-117300476D01*
X139418571Y-117348095D01*
X139370952Y-117395714D01*
X139323333Y-117490952D01*
X139323333Y-117681428D01*
X139370952Y-117776666D01*
X139418571Y-117824285D01*
X139513809Y-117871904D01*
%TO.C,U5*%
X91952380Y-118871904D02*
X92761904Y-118871904D01*
X92857142Y-118824285D01*
X92904761Y-118776666D01*
X92952380Y-118681428D01*
X92952380Y-118490952D01*
X92904761Y-118395714D01*
X92857142Y-118348095D01*
X92761904Y-118300476D01*
X91952380Y-118300476D01*
X91952380Y-117348095D02*
X91952380Y-117824285D01*
X92428571Y-117871904D01*
X92380952Y-117824285D01*
X92333333Y-117729047D01*
X92333333Y-117490952D01*
X92380952Y-117395714D01*
X92428571Y-117348095D01*
X92523809Y-117300476D01*
X92761904Y-117300476D01*
X92857142Y-117348095D01*
X92904761Y-117395714D01*
X92952380Y-117490952D01*
X92952380Y-117729047D01*
X92904761Y-117824285D01*
X92857142Y-117871904D01*
%TO.C,U4*%
X101262380Y-140461904D02*
X102071904Y-140461904D01*
X102167142Y-140414285D01*
X102214761Y-140366666D01*
X102262380Y-140271428D01*
X102262380Y-140080952D01*
X102214761Y-139985714D01*
X102167142Y-139938095D01*
X102071904Y-139890476D01*
X101262380Y-139890476D01*
X101595714Y-138985714D02*
X102262380Y-138985714D01*
X101214761Y-139223809D02*
X101929047Y-139461904D01*
X101929047Y-138842857D01*
%TO.C,U3*%
X61892380Y-140461904D02*
X62701904Y-140461904D01*
X62797142Y-140414285D01*
X62844761Y-140366666D01*
X62892380Y-140271428D01*
X62892380Y-140080952D01*
X62844761Y-139985714D01*
X62797142Y-139938095D01*
X62701904Y-139890476D01*
X61892380Y-139890476D01*
X61892380Y-139509523D02*
X61892380Y-138890476D01*
X62273333Y-139223809D01*
X62273333Y-139080952D01*
X62320952Y-138985714D01*
X62368571Y-138938095D01*
X62463809Y-138890476D01*
X62701904Y-138890476D01*
X62797142Y-138938095D01*
X62844761Y-138985714D01*
X62892380Y-139080952D01*
X62892380Y-139366666D01*
X62844761Y-139461904D01*
X62797142Y-139509523D01*
%TO.C,U2*%
X101262380Y-155701904D02*
X102071904Y-155701904D01*
X102167142Y-155654285D01*
X102214761Y-155606666D01*
X102262380Y-155511428D01*
X102262380Y-155320952D01*
X102214761Y-155225714D01*
X102167142Y-155178095D01*
X102071904Y-155130476D01*
X101262380Y-155130476D01*
X101357619Y-154701904D02*
X101310000Y-154654285D01*
X101262380Y-154559047D01*
X101262380Y-154320952D01*
X101310000Y-154225714D01*
X101357619Y-154178095D01*
X101452857Y-154130476D01*
X101548095Y-154130476D01*
X101690952Y-154178095D01*
X102262380Y-154749523D01*
X102262380Y-154130476D01*
%TO.C,U1*%
X61892380Y-154431904D02*
X62701904Y-154431904D01*
X62797142Y-154384285D01*
X62844761Y-154336666D01*
X62892380Y-154241428D01*
X62892380Y-154050952D01*
X62844761Y-153955714D01*
X62797142Y-153908095D01*
X62701904Y-153860476D01*
X61892380Y-153860476D01*
X62892380Y-152860476D02*
X62892380Y-153431904D01*
X62892380Y-153146190D02*
X61892380Y-153146190D01*
X62035238Y-153241428D01*
X62130476Y-153336666D01*
X62178095Y-153431904D01*
%TD*%
M02*
