M48
; DRILL file {KiCad 5.1.10} date Wed Aug 11 14:36:54 2021
; FORMAT={-:-/ absolute / inch / decimal}
; #@! TF.CreationDate,2021-08-11T14:36:54-04:00
; #@! TF.GenerationSoftware,Kicad,Pcbnew,5.1.10
FMAT,2
INCH
T1C0.0157
T2C0.0315
T3C0.0402
T4C0.0591
T5C0.0709
%
G90
G05
T1
X2.4Y-4.85
X2.4Y-5.2
X2.5Y-3.85
X2.55Y-5.75
X3.7Y-5.25
X3.8Y-5.35
X3.85Y-3.65
X3.85Y-5.35
X3.85Y-5.45
X3.9Y-3.85
X3.9Y-5.3892
X3.9Y-5.65
X3.95Y-4.75
X3.95Y-5.35
X4.0Y-3.75
X4.0Y-4.8
X4.0Y-4.85
X4.0Y-5.35
X4.05Y-5.15
X4.1Y-3.7
X4.1Y-3.85
X4.1Y-4.25
X4.1Y-4.75
X4.1Y-4.8
X4.1Y-4.85
X4.1Y-5.5
X4.1Y-6.4
X4.15Y-3.6
X4.15Y-3.65
X4.2Y-5.5
X4.3Y-6.05
X4.35Y-3.6
X4.35Y-3.65
X4.4Y-5.4228
X4.4Y-6.05
X4.497Y-5.453
X4.55Y-4.85
X4.65Y-5.2
X4.65Y-5.5
X4.6624Y-5.5376
X4.75Y-4.65
X4.9Y-3.9
X4.9Y-5.2772
X5.0Y-5.2486
X5.0Y-5.7
X5.05Y-3.9
X5.099Y-5.2762
X5.1155Y-5.2404
X5.153Y-5.203
X5.1852Y-5.2744
X5.25Y-3.7
X5.25Y-4.2
X5.25Y-5.25
X5.4Y-4.2
X5.7994Y-4.2006
X5.8Y-4.1
X5.9Y-3.7
T2
X2.25Y-4.35
X2.25Y-4.95
X2.35Y-4.35
X2.35Y-4.95
X2.45Y-4.35
X2.45Y-4.95
X2.55Y-4.35
X2.55Y-4.95
X2.55Y-5.35
X2.55Y-5.65
X2.55Y-5.9
X2.55Y-6.2
X2.6Y-3.8
X2.6Y-4.1
X2.65Y-4.35
X2.65Y-4.95
X2.65Y-5.35
X2.65Y-5.65
X2.65Y-5.9
X2.65Y-6.2
X2.7Y-3.8
X2.7Y-4.1
X2.75Y-4.35
X2.75Y-4.95
X2.75Y-5.35
X2.75Y-5.65
X2.75Y-5.9
X2.75Y-6.2
X2.8Y-3.8
X2.8Y-4.1
X2.85Y-4.35
X2.85Y-4.95
X2.85Y-5.35
X2.85Y-5.65
X2.85Y-5.9
X2.85Y-6.2
X2.9Y-3.8
X2.9Y-4.1
X2.95Y-4.35
X2.95Y-4.95
X2.95Y-5.35
X2.95Y-5.65
X2.95Y-5.9
X2.95Y-6.2
X3.0Y-3.8
X3.0Y-4.1
X3.05Y-4.35
X3.05Y-4.95
X3.05Y-5.35
X3.05Y-5.65
X3.05Y-5.9
X3.05Y-6.2
X3.1Y-3.8
X3.1Y-4.1
X3.15Y-4.35
X3.15Y-4.95
X3.15Y-5.35
X3.15Y-5.65
X3.15Y-5.9
X3.15Y-6.2
X3.2Y-3.8
X3.2Y-4.1
X3.25Y-4.35
X3.25Y-4.95
X3.25Y-5.35
X3.25Y-5.65
X3.25Y-5.9
X3.25Y-6.2
X3.3Y-3.8
X3.3Y-4.1
X3.35Y-4.35
X3.35Y-4.95
X3.45Y-4.35
X3.45Y-4.95
X3.55Y-4.35
X3.55Y-4.95
X4.1Y-4.35
X4.1Y-4.95
X4.1Y-5.35
X4.1Y-5.65
X4.1Y-5.95
X4.1Y-6.25
X4.2Y-4.35
X4.2Y-4.95
X4.2Y-5.35
X4.2Y-5.65
X4.2Y-5.95
X4.2Y-6.25
X4.3Y-4.35
X4.3Y-4.95
X4.3Y-5.35
X4.3Y-5.65
X4.3Y-5.95
X4.3Y-6.25
X4.4Y-3.8
X4.4Y-4.1
X4.4Y-4.35
X4.4Y-4.95
X4.4Y-5.35
X4.4Y-5.65
X4.4Y-5.95
X4.4Y-6.25
X4.5Y-3.8
X4.5Y-4.1
X4.5Y-4.35
X4.5Y-4.95
X4.5Y-5.35
X4.5Y-5.65
X4.5Y-5.95
X4.5Y-6.25
X4.6Y-3.8
X4.6Y-4.1
X4.6Y-4.35
X4.6Y-4.95
X4.6Y-5.35
X4.6Y-5.65
X4.6Y-5.95
X4.6Y-6.25
X4.7Y-3.8
X4.7Y-4.1
X4.7Y-4.35
X4.7Y-4.95
X4.7Y-5.35
X4.7Y-5.65
X4.7Y-5.95
X4.7Y-6.25
X4.8Y-3.8
X4.8Y-4.1
X4.8Y-4.35
X4.8Y-4.95
X4.8Y-5.35
X4.8Y-5.65
X4.8Y-5.95
X4.8Y-6.25
X4.9Y-3.8
X4.9Y-4.1
X4.9Y-4.35
X4.9Y-4.95
X5.0Y-3.8
X5.0Y-4.1
X5.0Y-4.35
X5.0Y-4.95
X5.1Y-3.8
X5.1Y-4.1
X5.1Y-4.35
X5.1Y-4.95
X5.2Y-4.35
X5.2Y-4.95
X5.3Y-4.35
X5.3Y-4.95
X5.4Y-4.35
X5.4Y-4.95
T3
X3.75Y-2.75
X3.75Y-3.45
X3.85Y-2.75
X3.85Y-3.45
X3.95Y-2.75
X3.95Y-3.45
X4.05Y-2.75
X4.05Y-3.45
X4.15Y-2.75
X4.15Y-3.45
X4.25Y-2.75
X4.25Y-3.45
X4.35Y-2.75
X4.35Y-3.45
X4.45Y-2.75
X4.45Y-3.45
X4.55Y-2.75
X4.55Y-3.45
X4.65Y-2.75
X4.65Y-3.45
X4.75Y-2.75
X4.75Y-3.45
X4.85Y-2.75
X4.85Y-3.45
X4.95Y-2.75
X4.95Y-3.45
X5.05Y-2.75
X5.05Y-3.45
X5.15Y-2.75
X5.15Y-3.45
X5.25Y-2.75
X5.25Y-3.45
X5.35Y-2.75
X5.35Y-3.45
X5.45Y-2.75
X5.45Y-3.45
X5.55Y-2.75
X5.55Y-3.45
X5.6409Y-3.0
X5.6409Y-3.1
X5.6409Y-3.2
X5.65Y-2.75
X5.65Y-3.45
T4
X3.8744Y-3.0045
X3.8744Y-3.1955
T5
X3.7551Y-2.9927
X3.7551Y-3.2073
T0
M30
