%TF.GenerationSoftware,KiCad,Pcbnew,5.1.10*%
%TF.CreationDate,2021-08-11T14:36:07-04:00*%
%TF.ProjectId,TestSchematic,54657374-5363-4686-956d-617469632e6b,rev?*%
%TF.SameCoordinates,Original*%
%TF.FileFunction,Copper,L2,Bot*%
%TF.FilePolarity,Positive*%
%FSLAX46Y46*%
G04 Gerber Fmt 4.6, Leading zero omitted, Abs format (unit mm)*
G04 Created by KiCad (PCBNEW 5.1.10) date 2021-08-11 14:36:07*
%MOMM*%
%LPD*%
G01*
G04 APERTURE LIST*
%TA.AperFunction,ComponentPad*%
%ADD10O,1.700000X1.700000*%
%TD*%
%TA.AperFunction,ComponentPad*%
%ADD11R,1.700000X1.700000*%
%TD*%
%TA.AperFunction,ComponentPad*%
%ADD12R,1.600000X1.600000*%
%TD*%
%TA.AperFunction,ComponentPad*%
%ADD13O,1.600000X1.600000*%
%TD*%
%TA.AperFunction,ViaPad*%
%ADD14C,0.800000*%
%TD*%
%TA.AperFunction,Conductor*%
%ADD15C,0.250000*%
%TD*%
G04 APERTURE END LIST*
D10*
%TO.P,U9,1*%
%TO.N,Net-(U7-Pad14)*%
X95250000Y-87630000D03*
%TO.P,U9,2*%
%TO.N,Net-(U7-Pad11)*%
X97790000Y-87630000D03*
D11*
%TO.P,U9,3*%
%TO.N,Net-(U9-Pad3)*%
X100330000Y-87630000D03*
D10*
%TO.P,U9,4*%
%TO.N,Net-(U7-Pad10)*%
X102870000Y-87630000D03*
%TO.P,U9,5*%
%TO.N,Net-(U7-Pad12)*%
X105410000Y-87630000D03*
%TO.P,U9,6*%
%TO.N,Net-(U9-Pad6)*%
X107950000Y-87630000D03*
%TO.P,U9,7*%
%TO.N,Net-(U3-Pad14)*%
X110490000Y-87630000D03*
D11*
%TO.P,U9,8*%
%TO.N,Net-(U9-Pad8)*%
X113030000Y-87630000D03*
D10*
%TO.P,U9,9*%
%TO.N,Net-(U3-Pad11)*%
X115570000Y-87630000D03*
%TO.P,U9,10*%
%TO.N,Net-(U3-Pad10)*%
X118110000Y-87630000D03*
%TO.P,U9,11*%
%TO.N,Net-(U3-Pad12)*%
X120650000Y-87630000D03*
%TO.P,U9,12*%
%TO.N,Net-(U3-Pad13)*%
X123190000Y-87630000D03*
D11*
%TO.P,U9,13*%
%TO.N,Net-(U1-Pad8)*%
X125730000Y-87630000D03*
D10*
%TO.P,U9,14*%
%TO.N,Net-(U9-Pad14)*%
X128270000Y-87630000D03*
%TO.P,U9,15*%
%TO.N,Net-(U1-Pad2)*%
X130810000Y-87630000D03*
%TO.P,U9,16*%
%TO.N,Net-(U1-Pad15)*%
X133350000Y-87630000D03*
%TO.P,U9,17*%
%TO.N,Net-(U2-Pad9)*%
X135890000Y-87630000D03*
D11*
%TO.P,U9,18*%
%TO.N,Net-(U9-Pad18)*%
X138430000Y-87630000D03*
D10*
%TO.P,U9,19*%
%TO.N,Net-(U5-Pad27)*%
X140970000Y-87630000D03*
%TO.P,U9,20*%
%TO.N,Net-(U5-Pad22)*%
X143510000Y-87630000D03*
%TO.P,U9,21*%
%TO.N,Net-(U5-Pad20)*%
X143510000Y-69850000D03*
%TO.P,U9,22*%
%TO.N,Net-(U9-Pad22)*%
X140970000Y-69850000D03*
D11*
%TO.P,U9,23*%
%TO.N,Net-(U9-Pad23)*%
X138430000Y-69850000D03*
D10*
%TO.P,U9,24*%
%TO.N,Net-(U9-Pad24)*%
X135890000Y-69850000D03*
%TO.P,U9,25*%
%TO.N,Net-(U9-Pad25)*%
X133350000Y-69850000D03*
%TO.P,U9,26*%
%TO.N,Net-(U9-Pad26)*%
X130810000Y-69850000D03*
%TO.P,U9,27*%
%TO.N,Net-(U9-Pad27)*%
X128270000Y-69850000D03*
D11*
%TO.P,U9,28*%
%TO.N,Net-(U9-Pad28)*%
X125730000Y-69850000D03*
D10*
%TO.P,U9,29*%
%TO.N,Net-(U9-Pad29)*%
X123190000Y-69850000D03*
%TO.P,U9,30*%
%TO.N,Net-(U9-Pad30)*%
X120650000Y-69850000D03*
%TO.P,U9,31*%
%TO.N,Net-(U9-Pad31)*%
X118110000Y-69850000D03*
%TO.P,U9,32*%
%TO.N,Net-(U9-Pad32)*%
X115570000Y-69850000D03*
D11*
%TO.P,U9,33*%
%TO.N,Net-(U9-Pad33)*%
X113030000Y-69850000D03*
D10*
%TO.P,U9,34*%
%TO.N,Net-(U9-Pad34)*%
X110490000Y-69850000D03*
%TO.P,U9,35*%
%TO.N,Net-(U9-Pad35)*%
X107950000Y-69850000D03*
%TO.P,U9,36*%
%TO.N,Net-(U1-Pad16)*%
X105410000Y-69850000D03*
%TO.P,U9,37*%
%TO.N,Net-(U9-Pad37)*%
X102870000Y-69850000D03*
D11*
%TO.P,U9,38*%
%TO.N,Net-(U9-Pad38)*%
X100330000Y-69850000D03*
D10*
%TO.P,U9,39*%
%TO.N,Net-(U9-Pad39)*%
X97790000Y-69850000D03*
%TO.P,U9,40*%
%TO.N,Net-(U9-Pad40)*%
X95250000Y-69850000D03*
%TO.P,U9,41*%
%TO.N,Net-(U9-Pad41)*%
X143280000Y-81280000D03*
D11*
%TO.P,U9,42*%
%TO.N,Net-(U9-Pad42)*%
X143280000Y-78740000D03*
D10*
%TO.P,U9,43*%
%TO.N,Net-(U9-Pad43)*%
X143280000Y-76200000D03*
%TD*%
D12*
%TO.P,U8,1*%
%TO.N,Net-(U5-Pad24)*%
X111760000Y-104140000D03*
D13*
%TO.P,U8,9*%
%TO.N,Net-(U8-Pad9)*%
X129540000Y-96520000D03*
%TO.P,U8,2*%
%TO.N,Net-(U5-Pad21)*%
X114300000Y-104140000D03*
%TO.P,U8,10*%
%TO.N,Net-(U7-Pad10)*%
X127000000Y-96520000D03*
%TO.P,U8,3*%
%TO.N,Net-(U5-Pad23)*%
X116840000Y-104140000D03*
%TO.P,U8,11*%
%TO.N,Net-(U7-Pad11)*%
X124460000Y-96520000D03*
%TO.P,U8,4*%
%TO.N,Net-(U5-Pad2)*%
X119380000Y-104140000D03*
%TO.P,U8,12*%
%TO.N,Net-(U7-Pad12)*%
X121920000Y-96520000D03*
%TO.P,U8,5*%
%TO.N,Net-(U5-Pad26)*%
X121920000Y-104140000D03*
%TO.P,U8,13*%
%TO.N,Net-(U1-Pad8)*%
X119380000Y-96520000D03*
%TO.P,U8,6*%
%TO.N,Net-(U5-Pad1)*%
X124460000Y-104140000D03*
%TO.P,U8,14*%
%TO.N,Net-(U7-Pad9)*%
X116840000Y-96520000D03*
%TO.P,U8,7*%
%TO.N,Net-(U8-Pad7)*%
X127000000Y-104140000D03*
%TO.P,U8,15*%
%TO.N,Net-(U5-Pad25)*%
X114300000Y-96520000D03*
%TO.P,U8,8*%
%TO.N,Net-(U1-Pad8)*%
X129540000Y-104140000D03*
%TO.P,U8,16*%
%TO.N,Net-(U1-Pad16)*%
X111760000Y-96520000D03*
%TD*%
D12*
%TO.P,U7,1*%
%TO.N,Net-(U5-Pad9)*%
X66040000Y-104140000D03*
D13*
%TO.P,U7,9*%
%TO.N,Net-(U7-Pad9)*%
X83820000Y-96520000D03*
%TO.P,U7,2*%
%TO.N,Net-(U5-Pad8)*%
X68580000Y-104140000D03*
%TO.P,U7,10*%
%TO.N,Net-(U7-Pad10)*%
X81280000Y-96520000D03*
%TO.P,U7,3*%
%TO.N,Net-(U5-Pad7)*%
X71120000Y-104140000D03*
%TO.P,U7,11*%
%TO.N,Net-(U7-Pad11)*%
X78740000Y-96520000D03*
%TO.P,U7,4*%
%TO.N,Net-(U5-Pad6)*%
X73660000Y-104140000D03*
%TO.P,U7,12*%
%TO.N,Net-(U7-Pad12)*%
X76200000Y-96520000D03*
%TO.P,U7,5*%
%TO.N,Net-(U5-Pad5)*%
X76200000Y-104140000D03*
%TO.P,U7,13*%
%TO.N,Net-(U1-Pad8)*%
X73660000Y-96520000D03*
%TO.P,U7,6*%
%TO.N,Net-(U5-Pad4)*%
X78740000Y-104140000D03*
%TO.P,U7,14*%
%TO.N,Net-(U7-Pad14)*%
X71120000Y-96520000D03*
%TO.P,U7,7*%
%TO.N,Net-(U5-Pad3)*%
X81280000Y-104140000D03*
%TO.P,U7,15*%
%TO.N,Net-(U5-Pad10)*%
X68580000Y-96520000D03*
%TO.P,U7,8*%
%TO.N,Net-(U1-Pad8)*%
X83820000Y-104140000D03*
%TO.P,U7,16*%
%TO.N,Net-(U1-Pad16)*%
X66040000Y-96520000D03*
%TD*%
%TO.P,U6,28*%
%TO.N,Net-(U1-Pad16)*%
X137160000Y-125730000D03*
%TO.P,U6,14*%
%TO.N,Net-(U1-Pad8)*%
X104140000Y-110490000D03*
%TO.P,U6,27*%
%TO.N,Net-(U5-Pad27)*%
X134620000Y-125730000D03*
%TO.P,U6,13*%
%TO.N,Net-(U2-Pad13)*%
X106680000Y-110490000D03*
%TO.P,U6,26*%
%TO.N,Net-(U5-Pad26)*%
X132080000Y-125730000D03*
%TO.P,U6,12*%
%TO.N,Net-(U2-Pad12)*%
X109220000Y-110490000D03*
%TO.P,U6,25*%
%TO.N,Net-(U5-Pad25)*%
X129540000Y-125730000D03*
%TO.P,U6,11*%
%TO.N,Net-(U2-Pad11)*%
X111760000Y-110490000D03*
%TO.P,U6,24*%
%TO.N,Net-(U5-Pad24)*%
X127000000Y-125730000D03*
%TO.P,U6,10*%
%TO.N,Net-(U5-Pad10)*%
X114300000Y-110490000D03*
%TO.P,U6,23*%
%TO.N,Net-(U5-Pad23)*%
X124460000Y-125730000D03*
%TO.P,U6,9*%
%TO.N,Net-(U5-Pad9)*%
X116840000Y-110490000D03*
%TO.P,U6,22*%
%TO.N,Net-(U5-Pad22)*%
X121920000Y-125730000D03*
%TO.P,U6,8*%
%TO.N,Net-(U5-Pad8)*%
X119380000Y-110490000D03*
%TO.P,U6,21*%
%TO.N,Net-(U5-Pad21)*%
X119380000Y-125730000D03*
%TO.P,U6,7*%
%TO.N,Net-(U5-Pad7)*%
X121920000Y-110490000D03*
%TO.P,U6,20*%
%TO.N,Net-(U5-Pad20)*%
X116840000Y-125730000D03*
%TO.P,U6,6*%
%TO.N,Net-(U5-Pad6)*%
X124460000Y-110490000D03*
%TO.P,U6,19*%
%TO.N,Net-(U2-Pad6)*%
X114300000Y-125730000D03*
%TO.P,U6,5*%
%TO.N,Net-(U5-Pad5)*%
X127000000Y-110490000D03*
%TO.P,U6,18*%
%TO.N,Net-(U2-Pad5)*%
X111760000Y-125730000D03*
%TO.P,U6,4*%
%TO.N,Net-(U5-Pad4)*%
X129540000Y-110490000D03*
%TO.P,U6,17*%
%TO.N,Net-(U2-Pad4)*%
X109220000Y-125730000D03*
%TO.P,U6,3*%
%TO.N,Net-(U5-Pad3)*%
X132080000Y-110490000D03*
%TO.P,U6,16*%
%TO.N,Net-(U2-Pad3)*%
X106680000Y-125730000D03*
%TO.P,U6,2*%
%TO.N,Net-(U5-Pad2)*%
X134620000Y-110490000D03*
%TO.P,U6,15*%
%TO.N,Net-(U2-Pad14)*%
X104140000Y-125730000D03*
D12*
%TO.P,U6,1*%
%TO.N,Net-(U5-Pad1)*%
X137160000Y-110490000D03*
%TD*%
D13*
%TO.P,U5,28*%
%TO.N,Net-(U1-Pad16)*%
X90170000Y-125730000D03*
%TO.P,U5,14*%
%TO.N,Net-(U1-Pad8)*%
X57150000Y-110490000D03*
%TO.P,U5,27*%
%TO.N,Net-(U5-Pad27)*%
X87630000Y-125730000D03*
%TO.P,U5,13*%
%TO.N,Net-(U1-Pad13)*%
X59690000Y-110490000D03*
%TO.P,U5,26*%
%TO.N,Net-(U5-Pad26)*%
X85090000Y-125730000D03*
%TO.P,U5,12*%
%TO.N,Net-(U1-Pad12)*%
X62230000Y-110490000D03*
%TO.P,U5,25*%
%TO.N,Net-(U5-Pad25)*%
X82550000Y-125730000D03*
%TO.P,U5,11*%
%TO.N,Net-(U1-Pad11)*%
X64770000Y-110490000D03*
%TO.P,U5,24*%
%TO.N,Net-(U5-Pad24)*%
X80010000Y-125730000D03*
%TO.P,U5,10*%
%TO.N,Net-(U5-Pad10)*%
X67310000Y-110490000D03*
%TO.P,U5,23*%
%TO.N,Net-(U5-Pad23)*%
X77470000Y-125730000D03*
%TO.P,U5,9*%
%TO.N,Net-(U5-Pad9)*%
X69850000Y-110490000D03*
%TO.P,U5,22*%
%TO.N,Net-(U5-Pad22)*%
X74930000Y-125730000D03*
%TO.P,U5,8*%
%TO.N,Net-(U5-Pad8)*%
X72390000Y-110490000D03*
%TO.P,U5,21*%
%TO.N,Net-(U5-Pad21)*%
X72390000Y-125730000D03*
%TO.P,U5,7*%
%TO.N,Net-(U5-Pad7)*%
X74930000Y-110490000D03*
%TO.P,U5,20*%
%TO.N,Net-(U5-Pad20)*%
X69850000Y-125730000D03*
%TO.P,U5,6*%
%TO.N,Net-(U5-Pad6)*%
X77470000Y-110490000D03*
%TO.P,U5,19*%
%TO.N,Net-(U1-Pad6)*%
X67310000Y-125730000D03*
%TO.P,U5,5*%
%TO.N,Net-(U5-Pad5)*%
X80010000Y-110490000D03*
%TO.P,U5,18*%
%TO.N,Net-(U1-Pad5)*%
X64770000Y-125730000D03*
%TO.P,U5,4*%
%TO.N,Net-(U5-Pad4)*%
X82550000Y-110490000D03*
%TO.P,U5,17*%
%TO.N,Net-(U1-Pad4)*%
X62230000Y-125730000D03*
%TO.P,U5,3*%
%TO.N,Net-(U5-Pad3)*%
X85090000Y-110490000D03*
%TO.P,U5,16*%
%TO.N,Net-(U1-Pad3)*%
X59690000Y-125730000D03*
%TO.P,U5,2*%
%TO.N,Net-(U5-Pad2)*%
X87630000Y-110490000D03*
%TO.P,U5,15*%
%TO.N,Net-(U1-Pad14)*%
X57150000Y-125730000D03*
D12*
%TO.P,U5,1*%
%TO.N,Net-(U5-Pad1)*%
X90170000Y-110490000D03*
%TD*%
D13*
%TO.P,U4,16*%
%TO.N,Net-(U1-Pad16)*%
X104140000Y-135890000D03*
%TO.P,U4,8*%
%TO.N,Net-(U1-Pad8)*%
X121920000Y-143510000D03*
%TO.P,U4,15*%
%TO.N,Net-(U2-Pad11)*%
X106680000Y-135890000D03*
%TO.P,U4,7*%
%TO.N,Net-(U2-Pad6)*%
X119380000Y-143510000D03*
%TO.P,U4,14*%
%TO.N,Net-(U3-Pad9)*%
X109220000Y-135890000D03*
%TO.P,U4,6*%
%TO.N,Net-(U2-Pad5)*%
X116840000Y-143510000D03*
%TO.P,U4,13*%
%TO.N,Net-(U3-Pad13)*%
X111760000Y-135890000D03*
%TO.P,U4,5*%
%TO.N,Net-(U2-Pad4)*%
X114300000Y-143510000D03*
%TO.P,U4,12*%
%TO.N,Net-(U3-Pad12)*%
X114300000Y-135890000D03*
%TO.P,U4,4*%
%TO.N,Net-(U2-Pad3)*%
X111760000Y-143510000D03*
%TO.P,U4,11*%
%TO.N,Net-(U3-Pad11)*%
X116840000Y-135890000D03*
%TO.P,U4,3*%
%TO.N,Net-(U2-Pad14)*%
X109220000Y-143510000D03*
%TO.P,U4,10*%
%TO.N,Net-(U3-Pad10)*%
X119380000Y-135890000D03*
%TO.P,U4,2*%
%TO.N,Net-(U2-Pad13)*%
X106680000Y-143510000D03*
%TO.P,U4,9*%
%TO.N,Net-(U4-Pad9)*%
X121920000Y-135890000D03*
D12*
%TO.P,U4,1*%
%TO.N,Net-(U2-Pad12)*%
X104140000Y-143510000D03*
%TD*%
D13*
%TO.P,U3,16*%
%TO.N,Net-(U1-Pad16)*%
X64770000Y-135890000D03*
%TO.P,U3,8*%
%TO.N,Net-(U1-Pad8)*%
X82550000Y-143510000D03*
%TO.P,U3,15*%
%TO.N,Net-(U1-Pad11)*%
X67310000Y-135890000D03*
%TO.P,U3,7*%
%TO.N,Net-(U1-Pad6)*%
X80010000Y-143510000D03*
%TO.P,U3,14*%
%TO.N,Net-(U3-Pad14)*%
X69850000Y-135890000D03*
%TO.P,U3,6*%
%TO.N,Net-(U1-Pad5)*%
X77470000Y-143510000D03*
%TO.P,U3,13*%
%TO.N,Net-(U3-Pad13)*%
X72390000Y-135890000D03*
%TO.P,U3,5*%
%TO.N,Net-(U1-Pad4)*%
X74930000Y-143510000D03*
%TO.P,U3,12*%
%TO.N,Net-(U3-Pad12)*%
X74930000Y-135890000D03*
%TO.P,U3,4*%
%TO.N,Net-(U1-Pad3)*%
X72390000Y-143510000D03*
%TO.P,U3,11*%
%TO.N,Net-(U3-Pad11)*%
X77470000Y-135890000D03*
%TO.P,U3,3*%
%TO.N,Net-(U1-Pad14)*%
X69850000Y-143510000D03*
%TO.P,U3,10*%
%TO.N,Net-(U3-Pad10)*%
X80010000Y-135890000D03*
%TO.P,U3,2*%
%TO.N,Net-(U1-Pad13)*%
X67310000Y-143510000D03*
%TO.P,U3,9*%
%TO.N,Net-(U3-Pad9)*%
X82550000Y-135890000D03*
D12*
%TO.P,U3,1*%
%TO.N,Net-(U1-Pad12)*%
X64770000Y-143510000D03*
%TD*%
%TO.P,U2,1*%
%TO.N,Net-(U1-Pad1)*%
X104140000Y-158750000D03*
D13*
%TO.P,U2,9*%
%TO.N,Net-(U2-Pad9)*%
X121920000Y-151130000D03*
%TO.P,U2,2*%
%TO.N,Net-(U1-Pad2)*%
X106680000Y-158750000D03*
%TO.P,U2,10*%
%TO.N,Net-(U1-Pad9)*%
X119380000Y-151130000D03*
%TO.P,U2,3*%
%TO.N,Net-(U2-Pad3)*%
X109220000Y-158750000D03*
%TO.P,U2,11*%
%TO.N,Net-(U2-Pad11)*%
X116840000Y-151130000D03*
%TO.P,U2,4*%
%TO.N,Net-(U2-Pad4)*%
X111760000Y-158750000D03*
%TO.P,U2,12*%
%TO.N,Net-(U2-Pad12)*%
X114300000Y-151130000D03*
%TO.P,U2,5*%
%TO.N,Net-(U2-Pad5)*%
X114300000Y-158750000D03*
%TO.P,U2,13*%
%TO.N,Net-(U2-Pad13)*%
X111760000Y-151130000D03*
%TO.P,U2,6*%
%TO.N,Net-(U2-Pad6)*%
X116840000Y-158750000D03*
%TO.P,U2,14*%
%TO.N,Net-(U2-Pad14)*%
X109220000Y-151130000D03*
%TO.P,U2,7*%
%TO.N,Net-(U2-Pad7)*%
X119380000Y-158750000D03*
%TO.P,U2,15*%
%TO.N,Net-(U1-Pad15)*%
X106680000Y-151130000D03*
%TO.P,U2,8*%
%TO.N,Net-(U1-Pad8)*%
X121920000Y-158750000D03*
%TO.P,U2,16*%
%TO.N,Net-(U1-Pad16)*%
X104140000Y-151130000D03*
%TD*%
%TO.P,U1,16*%
%TO.N,Net-(U1-Pad16)*%
X64770000Y-149860000D03*
%TO.P,U1,8*%
%TO.N,Net-(U1-Pad8)*%
X82550000Y-157480000D03*
%TO.P,U1,15*%
%TO.N,Net-(U1-Pad15)*%
X67310000Y-149860000D03*
%TO.P,U1,7*%
%TO.N,Net-(U1-Pad7)*%
X80010000Y-157480000D03*
%TO.P,U1,14*%
%TO.N,Net-(U1-Pad14)*%
X69850000Y-149860000D03*
%TO.P,U1,6*%
%TO.N,Net-(U1-Pad6)*%
X77470000Y-157480000D03*
%TO.P,U1,13*%
%TO.N,Net-(U1-Pad13)*%
X72390000Y-149860000D03*
%TO.P,U1,5*%
%TO.N,Net-(U1-Pad5)*%
X74930000Y-157480000D03*
%TO.P,U1,12*%
%TO.N,Net-(U1-Pad12)*%
X74930000Y-149860000D03*
%TO.P,U1,4*%
%TO.N,Net-(U1-Pad4)*%
X72390000Y-157480000D03*
%TO.P,U1,11*%
%TO.N,Net-(U1-Pad11)*%
X77470000Y-149860000D03*
%TO.P,U1,3*%
%TO.N,Net-(U1-Pad3)*%
X69850000Y-157480000D03*
%TO.P,U1,10*%
%TO.N,Net-(U1-Pad10)*%
X80010000Y-149860000D03*
%TO.P,U1,2*%
%TO.N,Net-(U1-Pad2)*%
X67310000Y-157480000D03*
%TO.P,U1,9*%
%TO.N,Net-(U1-Pad9)*%
X82550000Y-149860000D03*
D12*
%TO.P,U1,1*%
%TO.N,Net-(U1-Pad1)*%
X64770000Y-157480000D03*
%TD*%
D14*
%TO.N,Net-(U1-Pad15)*%
X127000000Y-144780000D03*
X133350000Y-93980000D03*
%TO.N,Net-(U1-Pad8)*%
X128270000Y-99060000D03*
X124460000Y-99060000D03*
%TO.N,Net-(U1-Pad1)*%
X104140000Y-162560000D03*
%TO.N,Net-(U2-Pad14)*%
X118110000Y-139700000D03*
%TO.N,Net-(U2-Pad6)*%
X133350000Y-133350000D03*
X130885154Y-132155154D03*
X118110000Y-132080000D03*
%TO.N,Net-(U2-Pad13)*%
X109220000Y-153670000D03*
X111760000Y-153670000D03*
X104140000Y-120650000D03*
X100330000Y-120650000D03*
X100330000Y-135890000D03*
%TO.N,Net-(U2-Pad5)*%
X127000000Y-133314999D03*
X129933573Y-133106734D03*
%TO.N,Net-(U2-Pad12)*%
X104140000Y-121920000D03*
X101600000Y-121920000D03*
X99060000Y-136885009D03*
X99060000Y-143510000D03*
%TO.N,Net-(U2-Pad4)*%
X104140000Y-123190000D03*
X101600000Y-123190000D03*
X101600000Y-135890000D03*
X104140000Y-139700000D03*
X106680000Y-139700000D03*
X114224846Y-138505154D03*
%TO.N,Net-(U2-Pad11)*%
X97790000Y-138430000D03*
X97790000Y-135890000D03*
X104140000Y-107950000D03*
%TO.N,Net-(U2-Pad3)*%
X124460000Y-134039999D03*
X129514849Y-134014848D03*
X118425152Y-140654848D03*
%TO.N,Net-(U2-Pad9)*%
X147304846Y-106695154D03*
X147320000Y-104140000D03*
%TO.N,Net-(U3-Pad13)*%
X149860000Y-93980000D03*
X131704508Y-133970187D03*
X111760000Y-137740001D03*
%TO.N,Net-(U3-Pad12)*%
X93980000Y-133350000D03*
X104140000Y-93980000D03*
%TO.N,Net-(U3-Pad11)*%
X96520000Y-135890000D03*
%TO.N,Net-(U5-Pad26)*%
X120650000Y-118110000D03*
%TO.N,Net-(U5-Pad24)*%
X115570000Y-123190000D03*
%TO.N,Net-(U5-Pad2)*%
X133350000Y-106680000D03*
%TO.N,Net-(U5-Pad1)*%
X137160000Y-106680000D03*
%TO.N,Net-(U7-Pad12)*%
X101600000Y-95250000D03*
%TO.N,Net-(U7-Pad11)*%
X97790000Y-92710000D03*
X105410000Y-92710000D03*
X110490000Y-92710000D03*
%TO.N,Net-(U7-Pad10)*%
X105410000Y-91440000D03*
X110490000Y-91440000D03*
%TO.N,Net-(U1-Pad16)*%
X104140000Y-97790000D03*
X99060000Y-97790000D03*
X64770000Y-146050000D03*
X60960000Y-132080000D03*
X60960000Y-123190000D03*
X102870000Y-130810000D03*
X63500000Y-97790000D03*
%TD*%
D15*
%TO.N,Net-(U1-Pad15)*%
X69850000Y-152400000D02*
X67310000Y-149860000D01*
X105410000Y-152400000D02*
X69850000Y-152400000D01*
X106680000Y-151130000D02*
X105410000Y-152400000D01*
X122009992Y-152705010D02*
X127000000Y-147715002D01*
X108255010Y-152705010D02*
X122009992Y-152705010D01*
X106680000Y-151130000D02*
X108255010Y-152705010D01*
X127000000Y-147715002D02*
X127000000Y-144780000D01*
X133350000Y-93980000D02*
X133350000Y-87630000D01*
%TO.N,Net-(U1-Pad8)*%
X82694999Y-157624999D02*
X82550000Y-157480000D01*
X120794999Y-157624999D02*
X82694999Y-157624999D01*
X121920000Y-158750000D02*
X120794999Y-157624999D01*
X128414999Y-103014999D02*
X129540000Y-104140000D01*
X110483631Y-103014999D02*
X128414999Y-103014999D01*
X104140000Y-109358630D02*
X110483631Y-103014999D01*
X104140000Y-110490000D02*
X104140000Y-109358630D01*
X119129997Y-142384999D02*
X120794999Y-142384999D01*
X112885001Y-136140003D02*
X119129997Y-142384999D01*
X112885001Y-135349999D02*
X112885001Y-136140003D01*
X120794999Y-142384999D02*
X121920000Y-143510000D01*
X112300001Y-134764999D02*
X112885001Y-135349999D01*
X111509997Y-134764999D02*
X112300001Y-134764999D01*
X103014999Y-126270001D02*
X111509997Y-134764999D01*
X103014999Y-111615001D02*
X103014999Y-126270001D01*
X104140000Y-110490000D02*
X103014999Y-111615001D01*
X128125001Y-98915001D02*
X128270000Y-99060000D01*
X128125001Y-90025001D02*
X128125001Y-98915001D01*
X125730000Y-87630000D02*
X128125001Y-90025001D01*
X113759999Y-95394999D02*
X118254999Y-95394999D01*
X118254999Y-95394999D02*
X119380000Y-96520000D01*
X113174999Y-95979999D02*
X113759999Y-95394999D01*
X113174999Y-97060001D02*
X113174999Y-95979999D01*
X115174998Y-99060000D02*
X113174999Y-97060001D01*
X124460000Y-99060000D02*
X115174998Y-99060000D01*
X129540000Y-104140000D02*
X124460000Y-99060000D01*
%TO.N,Net-(U1-Pad13)*%
X67310000Y-144780000D02*
X72390000Y-149860000D01*
X67310000Y-143510000D02*
X67310000Y-144780000D01*
%TO.N,Net-(U1-Pad12)*%
X68435001Y-142969999D02*
X67850001Y-142384999D01*
X67850001Y-142384999D02*
X65895001Y-142384999D01*
X68435001Y-144050001D02*
X68435001Y-142969999D01*
X65895001Y-142384999D02*
X64770000Y-143510000D01*
X74245000Y-149860000D02*
X68435001Y-144050001D01*
X74930000Y-149860000D02*
X74245000Y-149860000D01*
X62770001Y-126855001D02*
X63355001Y-126270001D01*
X62770001Y-145123003D02*
X62770001Y-126855001D01*
X63355001Y-126270001D02*
X63355001Y-111615001D01*
X64421999Y-146775001D02*
X62770001Y-145123003D01*
X65118001Y-146775001D02*
X64421999Y-146775001D01*
X63355001Y-111615001D02*
X62230000Y-110490000D01*
X65495001Y-144235001D02*
X65495001Y-146398001D01*
X65495001Y-146398001D02*
X65118001Y-146775001D01*
X64770000Y-143510000D02*
X65495001Y-144235001D01*
%TO.N,Net-(U1-Pad11)*%
X73515001Y-142095001D02*
X67310000Y-135890000D01*
X73515001Y-145905001D02*
X73515001Y-142095001D01*
X77470000Y-149860000D02*
X73515001Y-145905001D01*
X66184999Y-134764999D02*
X67310000Y-135890000D01*
X66184999Y-111904999D02*
X66184999Y-134764999D01*
X64770000Y-110490000D02*
X66184999Y-111904999D01*
%TO.N,Net-(U1-Pad9)*%
X110345001Y-150589999D02*
X109615002Y-149860000D01*
X110345001Y-151380003D02*
X110345001Y-150589999D01*
X111219999Y-152255001D02*
X110345001Y-151380003D01*
X109615002Y-149860000D02*
X82550000Y-149860000D01*
X118254999Y-152255001D02*
X111219999Y-152255001D01*
X119380000Y-151130000D02*
X118254999Y-152255001D01*
%TO.N,Net-(U1-Pad1)*%
X104140000Y-162560000D02*
X104140000Y-158750000D01*
%TO.N,Net-(U2-Pad14)*%
X115425001Y-137015001D02*
X118110000Y-139700000D01*
X115425001Y-135349999D02*
X115425001Y-137015001D01*
X114840001Y-134764999D02*
X115425001Y-135349999D01*
X113174999Y-134764999D02*
X114840001Y-134764999D01*
X104140000Y-125730000D02*
X113174999Y-134764999D01*
%TO.N,Net-(U2-Pad6)*%
X132080000Y-133350000D02*
X130885154Y-132155154D01*
X133350000Y-133350000D02*
X132080000Y-133350000D01*
X114300000Y-128270000D02*
X114300000Y-125730000D01*
X118110000Y-132080000D02*
X114300000Y-128270000D01*
%TO.N,Net-(U2-Pad13)*%
X106680000Y-146050000D02*
X111760000Y-151130000D01*
X106680000Y-143510000D02*
X106680000Y-146050000D01*
X109220000Y-153670000D02*
X111760000Y-153670000D01*
X104140000Y-113030000D02*
X104140000Y-120650000D01*
X106680000Y-110490000D02*
X104140000Y-113030000D01*
X100330000Y-120650000D02*
X100330000Y-135890000D01*
%TO.N,Net-(U2-Pad5)*%
X126490002Y-132805001D02*
X127000000Y-133314999D01*
X117703631Y-132805001D02*
X126490002Y-132805001D01*
X111760000Y-126861370D02*
X117703631Y-132805001D01*
X111760000Y-125730000D02*
X111760000Y-126861370D01*
X117965001Y-144635001D02*
X116840000Y-143510000D01*
X122460001Y-144635001D02*
X117965001Y-144635001D01*
X130333572Y-136761430D02*
X122460001Y-144635001D01*
X130333572Y-133506733D02*
X130333572Y-136761430D01*
X129933573Y-133106734D02*
X130333572Y-133506733D01*
%TO.N,Net-(U2-Pad12)*%
X105265001Y-142384999D02*
X104140000Y-143510000D01*
X107220001Y-142384999D02*
X105265001Y-142384999D01*
X107805001Y-142969999D02*
X107220001Y-142384999D01*
X107805001Y-144635001D02*
X107805001Y-142969999D01*
X114300000Y-151130000D02*
X107805001Y-144635001D01*
X109220000Y-116840000D02*
X104140000Y-121920000D01*
X109220000Y-110490000D02*
X109220000Y-116840000D01*
X102325001Y-135541999D02*
X102325001Y-136238001D01*
X102050010Y-135267008D02*
X102325001Y-135541999D01*
X102050010Y-123812992D02*
X102050010Y-135267008D01*
X102325001Y-136238001D02*
X101677993Y-136885009D01*
X102325001Y-123538001D02*
X102050010Y-123812992D01*
X101677993Y-136885009D02*
X99060000Y-136885009D01*
X102325001Y-122645001D02*
X102325001Y-123538001D01*
X101600000Y-121920000D02*
X102325001Y-122645001D01*
X99060000Y-143510000D02*
X104140000Y-143510000D01*
%TO.N,Net-(U2-Pad4)*%
X108094999Y-124604999D02*
X105554999Y-124604999D01*
X109220000Y-125730000D02*
X108094999Y-124604999D01*
X105554999Y-124604999D02*
X104140000Y-123190000D01*
X101600000Y-123190000D02*
X101600000Y-135890000D01*
X104140000Y-139700000D02*
X106680000Y-139700000D01*
X114224846Y-143434846D02*
X114300000Y-143510000D01*
X114224846Y-138505154D02*
X114224846Y-143434846D01*
%TO.N,Net-(U2-Pad11)*%
X112885001Y-142095001D02*
X106680000Y-135890000D01*
X112885001Y-147175001D02*
X112885001Y-142095001D01*
X116840000Y-151130000D02*
X112885001Y-147175001D01*
X106680000Y-135890000D02*
X104140000Y-138430000D01*
X104140000Y-138430000D02*
X97790000Y-138430000D01*
X97790000Y-114300000D02*
X104140000Y-107950000D01*
X97790000Y-135890000D02*
X97790000Y-114300000D01*
%TO.N,Net-(U2-Pad3)*%
X114989999Y-134039999D02*
X124460000Y-134039999D01*
X106680000Y-125730000D02*
X114989999Y-134039999D01*
X122874849Y-140654848D02*
X118425152Y-140654848D01*
X129514849Y-134014848D02*
X122874849Y-140654848D01*
%TO.N,Net-(U2-Pad9)*%
X147304846Y-104155154D02*
X147320000Y-104140000D01*
X147304846Y-106695154D02*
X147304846Y-104155154D01*
%TO.N,Net-(U3-Pad14)*%
X110490000Y-87630000D02*
X110490000Y-88900000D01*
X110490000Y-88900000D02*
X95250000Y-104140000D01*
X95250000Y-104140000D02*
X95250000Y-133350000D01*
X95250000Y-133350000D02*
X91440000Y-137160000D01*
X71120000Y-137160000D02*
X69850000Y-135890000D01*
X91440000Y-137160000D02*
X71120000Y-137160000D01*
%TO.N,Net-(U3-Pad13)*%
X106139999Y-134764999D02*
X110634999Y-134764999D01*
X110634999Y-134764999D02*
X111760000Y-135890000D01*
X105554999Y-135349999D02*
X106139999Y-134764999D01*
X105554999Y-136140003D02*
X105554999Y-135349999D01*
X104084993Y-137610009D02*
X105554999Y-136140003D01*
X69905007Y-137610009D02*
X104084993Y-137610009D01*
X68724999Y-136430001D02*
X69905007Y-137610009D01*
X68724999Y-135349999D02*
X68724999Y-136430001D01*
X69309999Y-134764999D02*
X68724999Y-135349999D01*
X71264999Y-134764999D02*
X69309999Y-134764999D01*
X72390000Y-135890000D02*
X71264999Y-134764999D01*
X131809322Y-134075001D02*
X131704508Y-133970187D01*
X133698001Y-134075001D02*
X131809322Y-134075001D01*
X145585021Y-122187981D02*
X133698001Y-134075001D01*
X145585021Y-86693199D02*
X145585021Y-122187981D01*
X149860000Y-90968178D02*
X145585021Y-86693199D01*
X149860000Y-93980000D02*
X149860000Y-90968178D01*
X111760000Y-137740001D02*
X111760000Y-135890000D01*
%TO.N,Net-(U3-Pad12)*%
X77470000Y-133350000D02*
X93980000Y-133350000D01*
X74930000Y-135890000D02*
X77470000Y-133350000D01*
X93980000Y-104140000D02*
X104140000Y-93980000D01*
X93980000Y-133350000D02*
X93980000Y-104140000D01*
%TO.N,Net-(U3-Pad11)*%
X115570000Y-87630000D02*
X113030000Y-90170000D01*
X113030000Y-90170000D02*
X110490000Y-90170000D01*
X117965001Y-134764999D02*
X116840000Y-135890000D01*
X127250003Y-134764999D02*
X117965001Y-134764999D01*
X135745001Y-125241409D02*
X135745001Y-126270001D01*
X145135011Y-115851399D02*
X135745001Y-125241409D01*
X145135011Y-86879599D02*
X145135011Y-115851399D01*
X144260402Y-86004990D02*
X145135011Y-86879599D01*
X117195010Y-86004990D02*
X144260402Y-86004990D01*
X135745001Y-126270001D02*
X127250003Y-134764999D01*
X115570000Y-87630000D02*
X117195010Y-86004990D01*
X96520000Y-104140000D02*
X96520000Y-135890000D01*
X110490000Y-90170000D02*
X96520000Y-104140000D01*
%TO.N,Net-(U5-Pad27)*%
X135745001Y-105954999D02*
X135745001Y-124604999D01*
X135890000Y-105954999D02*
X135745001Y-105954999D01*
X135890000Y-95886410D02*
X135890000Y-105954999D01*
X142971409Y-88805001D02*
X135890000Y-95886410D01*
X144074001Y-88805001D02*
X142971409Y-88805001D01*
X144685001Y-87065999D02*
X144685001Y-88194001D01*
X135745001Y-124604999D02*
X134620000Y-125730000D01*
X144074001Y-86454999D02*
X144685001Y-87065999D01*
X142145001Y-86454999D02*
X144074001Y-86454999D01*
X144685001Y-88194001D02*
X144074001Y-88805001D01*
X140970000Y-87630000D02*
X142145001Y-86454999D01*
%TO.N,Net-(U5-Pad26)*%
X120794999Y-117965001D02*
X120650000Y-118110000D01*
X120794999Y-105265001D02*
X120794999Y-117965001D01*
X121920000Y-104140000D02*
X120794999Y-105265001D01*
%TO.N,Net-(U5-Pad25)*%
X114300000Y-96520000D02*
X115570000Y-97790000D01*
X124855002Y-97790000D02*
X130810000Y-103744998D01*
X115570000Y-97790000D02*
X124855002Y-97790000D01*
X130810000Y-124460000D02*
X129540000Y-125730000D01*
X130810000Y-103744998D02*
X130810000Y-124460000D01*
%TO.N,Net-(U5-Pad24)*%
X110634999Y-118254999D02*
X115570000Y-123190000D01*
X110634999Y-105265001D02*
X110634999Y-118254999D01*
X111760000Y-104140000D02*
X110634999Y-105265001D01*
%TO.N,Net-(U5-Pad10)*%
X65499999Y-95394999D02*
X64914999Y-95979999D01*
X64914999Y-95979999D02*
X64914999Y-108094999D01*
X67454999Y-95394999D02*
X65499999Y-95394999D01*
X64914999Y-108094999D02*
X67310000Y-110490000D01*
X68580000Y-96520000D02*
X67454999Y-95394999D01*
%TO.N,Net-(U5-Pad23)*%
X115714999Y-116984999D02*
X124460000Y-125730000D01*
X115714999Y-105265001D02*
X115714999Y-116984999D01*
X116840000Y-104140000D02*
X115714999Y-105265001D01*
%TO.N,Net-(U5-Pad9)*%
X66040000Y-106680000D02*
X69850000Y-110490000D01*
X66040000Y-104140000D02*
X66040000Y-106680000D01*
%TO.N,Net-(U5-Pad22)*%
X125585001Y-126270001D02*
X125000001Y-126855001D01*
X125585001Y-125479997D02*
X125585001Y-126270001D01*
X127540001Y-124604999D02*
X126459999Y-124604999D01*
X128125001Y-125189999D02*
X127540001Y-124604999D01*
X128999999Y-126855001D02*
X128125001Y-125980003D01*
X125000001Y-126855001D02*
X123045001Y-126855001D01*
X130080001Y-126855001D02*
X128999999Y-126855001D01*
X128125001Y-125980003D02*
X128125001Y-125189999D01*
X130665001Y-126270001D02*
X130080001Y-126855001D01*
X126459999Y-124604999D02*
X125585001Y-125479997D01*
X130665001Y-125241409D02*
X130665001Y-126270001D01*
X123045001Y-126855001D02*
X121920000Y-125730000D01*
X133205001Y-122701409D02*
X130665001Y-125241409D01*
X133205001Y-109949999D02*
X133205001Y-122701409D01*
X132624999Y-109369997D02*
X133205001Y-109949999D01*
X132624999Y-98515001D02*
X132624999Y-109369997D01*
X143510000Y-87630000D02*
X132624999Y-98515001D01*
%TO.N,Net-(U5-Pad8)*%
X68580000Y-106680000D02*
X72390000Y-110490000D01*
X68580000Y-104140000D02*
X68580000Y-106680000D01*
%TO.N,Net-(U5-Pad21)*%
X113174999Y-119524999D02*
X119380000Y-125730000D01*
X113174999Y-105265001D02*
X113174999Y-119524999D01*
X114300000Y-104140000D02*
X113174999Y-105265001D01*
%TO.N,Net-(U5-Pad7)*%
X71120000Y-106680000D02*
X74930000Y-110490000D01*
X71120000Y-104140000D02*
X71120000Y-106680000D01*
%TO.N,Net-(U5-Pad6)*%
X73660000Y-106680000D02*
X77470000Y-110490000D01*
X73660000Y-104140000D02*
X73660000Y-106680000D01*
%TO.N,Net-(U5-Pad5)*%
X76200000Y-106680000D02*
X80010000Y-110490000D01*
X76200000Y-104140000D02*
X76200000Y-106680000D01*
%TO.N,Net-(U5-Pad4)*%
X78740000Y-106680000D02*
X82550000Y-110490000D01*
X78740000Y-104140000D02*
X78740000Y-106680000D01*
%TO.N,Net-(U5-Pad3)*%
X81280000Y-106680000D02*
X85090000Y-110490000D01*
X81280000Y-104140000D02*
X81280000Y-106680000D01*
%TO.N,Net-(U5-Pad2)*%
X134620000Y-107950000D02*
X133350000Y-106680000D01*
X134620000Y-110490000D02*
X134620000Y-107950000D01*
%TO.N,Net-(U5-Pad1)*%
X137160000Y-106680000D02*
X137160000Y-110490000D01*
%TO.N,Net-(U7-Pad12)*%
X86265001Y-86454999D02*
X76200000Y-96520000D01*
X104234999Y-86454999D02*
X86265001Y-86454999D01*
X105410000Y-87630000D02*
X104234999Y-86454999D01*
X77470000Y-95250000D02*
X101600000Y-95250000D01*
X76200000Y-96520000D02*
X77470000Y-95250000D01*
%TO.N,Net-(U7-Pad11)*%
X97790000Y-92710000D02*
X105410000Y-92710000D01*
X123585002Y-96520000D02*
X124460000Y-96520000D01*
X119775002Y-92710000D02*
X123585002Y-96520000D01*
X119775002Y-92710000D02*
X110490000Y-92710000D01*
%TO.N,Net-(U7-Pad10)*%
X102870000Y-88900000D02*
X105410000Y-91440000D01*
X102870000Y-87630000D02*
X102870000Y-88900000D01*
X121045002Y-91440000D02*
X126125002Y-96520000D01*
X126125002Y-96520000D02*
X127000000Y-96520000D01*
X110490000Y-91440000D02*
X121045002Y-91440000D01*
%TO.N,Net-(U1-Pad16)*%
X105410000Y-96520000D02*
X104140000Y-97790000D01*
X111760000Y-96520000D02*
X105410000Y-96520000D01*
X67310000Y-97790000D02*
X66040000Y-96520000D01*
X99060000Y-97790000D02*
X67310000Y-97790000D01*
X63644999Y-137015001D02*
X64770000Y-135890000D01*
X63644999Y-144924999D02*
X63644999Y-137015001D01*
X64770000Y-146050000D02*
X63644999Y-144924999D01*
X60960000Y-132080000D02*
X60960000Y-123190000D01*
X104140000Y-135890000D02*
X104140000Y-132080000D01*
X104140000Y-132080000D02*
X102870000Y-130810000D01*
X84549999Y-126855001D02*
X89044999Y-126855001D01*
X83964999Y-126270001D02*
X84549999Y-126855001D01*
X81424999Y-125189999D02*
X82009999Y-124604999D01*
X81424999Y-125980003D02*
X81424999Y-125189999D01*
X89044999Y-126855001D02*
X90170000Y-125730000D01*
X80550001Y-126855001D02*
X81424999Y-125980003D01*
X79469999Y-126855001D02*
X80550001Y-126855001D01*
X83090001Y-124604999D02*
X83964999Y-125479997D01*
X78884999Y-126270001D02*
X79469999Y-126855001D01*
X78884999Y-116110001D02*
X78884999Y-126270001D01*
X73804999Y-111030001D02*
X78884999Y-116110001D01*
X73804999Y-110239997D02*
X73804999Y-111030001D01*
X83964999Y-125479997D02*
X83964999Y-126270001D01*
X69705001Y-106139999D02*
X73804999Y-110239997D01*
X69705001Y-100185001D02*
X69705001Y-106139999D01*
X82009999Y-124604999D02*
X83090001Y-124604999D01*
X67310000Y-97790000D02*
X69705001Y-100185001D01*
X104234999Y-68674999D02*
X90075001Y-68674999D01*
X105410000Y-69850000D02*
X104234999Y-68674999D01*
X63500000Y-95250000D02*
X63500000Y-97790000D01*
X90075001Y-68674999D02*
X63500000Y-95250000D01*
%TD*%
M02*
